<svg width="16" height="16" viewBox="0 0 16 16" fill="none" xmlns="http://www.w3.org/2000/svg">
                    <path fill-rule="evenodd" clip-rule="evenodd" d="M7.47458 13H8.50906C8.54577 12.958 8.58364 12.917 8.62263 12.8769C8.8283 12.6652 9.06505 12.4797 9.32729 12.3268C10.543 11.6176 12.6207 11.5792 13.7568 12.416H13.9801H14.9801V11.416V4.85031C14.9801 4.85031 14.3248 3 11.3453 3C9.94041 3 9.11442 3.41136 8.63375 3.84616C8.21762 4.22258 8.06029 4.61657 8.01023 4.77642H7.96986C7.9198 4.61657 7.76247 4.22258 7.34634 3.84616C6.86567 3.41136 6.03968 3 4.63482 3C1.65532 3 1 4.85031 1 4.85031V11.4078V12.4078H2H2.22326C3.36036 11.5702 5.4398 11.6102 6.65472 12.3219C6.91744 12.4758 7.15444 12.6623 7.36011 12.8751C7.39942 12.9158 7.4376 12.9574 7.47458 13ZM8.49004 5.0493V11.6784C8.59743 11.6018 8.70866 11.5299 8.82342 11.463C9.6193 10.9987 10.6288 10.7842 11.5797 10.7917C12.3836 10.7979 13.2513 10.9642 13.9801 11.3728V5.0863C13.917 4.98563 13.8058 4.83674 13.6268 4.68237C13.2821 4.38502 12.6087 4 11.3453 4C10.0809 4 9.50799 4.38376 9.25456 4.63514C9.11677 4.7718 9.04006 4.90227 8.99983 4.98762C8.97967 5.03038 8.96906 5.06103 8.96496 5.07391L8.96306 5.08018L8.96358 5.07819L8.96598 5.06824L8.96782 5.05994L8.96889 5.05492L8.96946 5.05218L8.96975 5.05076C8.96977 5.05063 8.9698 5.05051 8.9645 5.0493H8.49004ZM7.49004 5.0493H7.01559C7.01029 5.05051 7.01032 5.05063 7.01034 5.05076L7.01064 5.05218L7.0112 5.05492L7.01227 5.05994L7.01411 5.06824L7.01651 5.07819L7.01703 5.08018L7.01513 5.07391C7.01103 5.06103 7.00042 5.03038 6.98026 4.98762C6.94003 4.90227 6.86332 4.7718 6.72553 4.63514C6.4721 4.38376 5.89922 4 4.63482 4C3.37135 4 2.69798 4.38502 2.35326 4.68237C2.1743 4.83674 2.06308 4.98563 2 5.0863V11.3646C2.72951 10.9556 3.59819 10.7896 4.40276 10.7839C5.3543 10.7772 6.36444 10.9929 7.16017 11.4591C7.2737 11.5256 7.38376 11.5969 7.49004 11.6728V5.0493Z" fill="currentColor" />
                  </svg>