<svg width="16" height="16" viewBox="0 0 16 16" fill="none" xmlns="http://www.w3.org/2000/svg">
<path fill-rule="evenodd" clip-rule="evenodd" d="M7.58479 3.73648C7.76516 3.54575 7.90564 3.5 8 3.5C8.09436 3.5 8.23484 3.54575 8.41521 3.73648C8.59658 3.92826 8.78296 4.23261 8.94998 4.65016C9.24065 5.37686 9.44304 6.37174 9.48972 7.5H6.51028C6.55696 6.37174 6.75935 5.37686 7.05002 4.65016C7.21704 4.23261 7.40342 3.92826 7.58479 3.73648ZM5.5095 7.5C5.5566 6.26642 5.77671 5.14088 6.12155 4.27877C6.1855 4.1189 6.2548 3.96542 6.32954 3.82024C4.81925 4.42438 3.7128 5.82339 3.52746 7.5H5.5095ZM3.52746 8.5H5.5095C5.5566 9.73358 5.77671 10.8591 6.12155 11.7212C6.1855 11.8811 6.2548 12.0346 6.32954 12.1798C4.81925 11.5756 3.7128 10.1766 3.52746 8.5ZM6.51028 8.5H9.48972C9.44304 9.62826 9.24065 10.6231 8.94998 11.3498C8.78296 11.7674 8.59658 12.0717 8.41521 12.2635C8.23484 12.4543 8.09436 12.5 8 12.5C7.90564 12.5 7.76516 12.4543 7.58479 12.2635C7.40342 12.0717 7.21704 11.7674 7.05002 11.3498C6.75935 10.6231 6.55696 9.62826 6.51028 8.5ZM10.4905 8.5C10.4434 9.73358 10.2233 10.8591 9.87845 11.7212C9.8145 11.8811 9.7452 12.0346 9.67046 12.1798C11.1808 11.5756 12.2872 10.1766 12.4725 8.5H10.4905ZM12.4725 7.5C12.2872 5.82339 11.1808 4.42438 9.67045 3.82024C9.7452 3.96542 9.8145 4.1189 9.87845 4.27877C10.2233 5.14088 10.4434 6.26642 10.4905 7.5H12.4725ZM13.5 8C13.5 11.0376 11.0376 13.5 8 13.5C4.96243 13.5 2.5 11.0376 2.5 8C2.5 4.96243 4.96243 2.5 8 2.5C11.0376 2.5 13.5 4.96243 13.5 8Z" fill="currentColor"/>
</svg>
