<svg width="16" height="16" viewBox="0 0 16 16" xmlns="http://www.w3.org/2000/svg">
  <path fill-rule="evenodd" clip-rule="evenodd" d="M8.65153 4.27019L3.3803 9.54141L2.67319 13.0769L6.20873 12.3698L13.3445 5.23411C13.735 4.84359 13.735 4.21042 13.3445 3.8199L11.9302 2.40569C11.5397 2.01516 10.9066 2.01516 10.516 2.40569L9.35863 3.56308L12.187 6.39144L11.4799 7.09854L8.65153 4.27019ZM1.39844 14.3517L2.46073 14.1392L6.70143 13.2911L6.70155 13.2912L6.70174 13.291L7.40866 12.5841L14.0516 5.94122C14.8326 5.16017 14.8326 3.89384 14.0516 3.11279L12.6373 1.69858C11.8563 0.91753 10.59 0.917532 9.80892 1.69858L3.16602 8.34148L2.4591 9.0484L2.45891 9.04859L2.45904 9.04871L1.6109 13.2894L1.39844 14.3517Z" fill="currentColor" />
</svg>