<svg width="52" height="28" viewBox="0 0 52 28" fill="none" xmlns="http://www.w3.org/2000/svg">
<path d="M23.9999 16.5002C20.4999 19.0002 23.0776 21.4486 27.4999 18.5002C30.5 16.5002 27.4999 15.5 25 17.5" stroke="currentColor"/>
<path d="M18.5233 10.5957C4.39088 38.1965 -11.5715 10.0408 15.4101 2.19623C30.8064 -2.28009 33.9383 13.4721 16.2025 16.8222C0.296739 19.8266 7.3612 6.12402 15.4101 18.1241C18.3451 22.5 21 20.5 21 20.5" stroke="currentColor"/>
<path d="M37.0001 17.5005C40.5001 15.5006 40.5001 20.5005 44 19C47.9229 17.3182 46.8228 19.5004 51.5001 19.5004M30 18.4996C36 13 34.0976 23.4024 31 26.4999C28 29.4999 27.5 22.4999 35.5 17.9999" stroke="currentColor"/>
</svg>
