<svg width="16" height="16" viewBox="0 0 16 16" xmlns="http://www.w3.org/2000/svg">
                <path fill-rule="evenodd" clip-rule="evenodd" d="M7 3C6.44772 3 6 3.44772 6 4H10C10 3.44772 9.55228 3 9 3H7ZM11 4C11 2.89543 10.1046 2 9 2H7C5.89543 2 5 2.89543 5 4H4H2V5H3.5V12C3.5 13.1046 4.39543 14 5.5 14H10.5C11.6046 14 12.5 13.1046 12.5 12V5H14V4H12H11ZM11.5 5H10.5H5.5H4.5V12C4.5 12.5523 4.94772 13 5.5 13H10.5C11.0523 13 11.5 12.5523 11.5 12V5ZM6 11V7H7V11H6ZM9 11V7H10V11H9Z" fill="currentColor" />
            </svg>