<svg width="596" height="252" viewBox="0 0 596 252" fill="none" xmlns="http://www.w3.org/2000/svg">
<path d="M3.6 2.472H36.576L65.664 53.592L65.952 53.304V11.976C65.952 8.80799 65.088 5.064 62.64 2.472H100.368C97.92 5.064 97.056 8.80799 97.056 11.976V95.496C97.056 98.664 97.92 102.408 100.368 105H67.392L38.304 52.152L38.016 52.44V95.496C38.016 98.664 38.88 102.408 41.328 105H3.6C6.048 102.408 6.912 98.664 6.912 95.496V11.976C6.912 8.80799 6.048 5.064 3.6 2.472ZM162.818 0.167994C192.338 0.167994 214.802 24.792 214.802 53.736C214.802 82.68 192.338 107.304 162.818 107.304C133.298 107.304 110.834 82.68 110.834 53.736C110.834 24.792 133.298 0.167994 162.818 0.167994ZM143.378 53.736C143.378 66.12 152.162 74.76 162.818 74.76C173.474 74.76 182.258 66.12 182.258 53.736C182.258 41.352 173.474 32.712 162.818 32.712C152.162 32.712 143.378 41.352 143.378 53.736ZM226.224 2.472H265.392C262.944 5.064 262.08 8.80799 262.08 11.976V95.496C262.08 98.664 262.944 102.408 265.392 105H226.224C228.672 102.408 229.536 98.664 229.536 95.496V11.976C229.536 8.80799 228.672 5.064 226.224 2.472ZM277.633 106.152V64.536C283.681 71.592 292.465 80.52 302.257 80.52C305.857 80.52 310.033 78.072 310.033 73.896C310.033 67.272 301.681 63.672 293.329 57.912C284.833 52.296 276.481 44.52 276.481 30.12C276.481 9.24 291.025 0.167994 310.465 0.167994C316.081 0.167994 322.561 3.192 324.721 3.192C327.025 3.192 329.041 2.90399 330.625 1.32V34.872C328.465 30.552 321.841 23.496 316.513 23.496C311.185 23.496 309.025 25.224 309.025 28.968C309.025 34.728 317.377 37.752 325.873 43.368C334.225 48.984 342.577 57.192 342.577 73.752C342.577 96.36 325.729 107.304 304.705 107.304C297.793 107.304 291.169 104.28 285.841 104.28C282.673 104.28 280.225 104.856 277.633 106.152ZM414.145 74.04V105H350.497C352.945 102.408 353.809 98.664 353.809 95.496V11.976C353.809 8.80799 352.945 5.064 350.497 2.472H414.145V33.432C409.681 31.416 403.777 30.696 398.593 30.696H384.913V41.496H392.257C396.001 41.496 399.745 41.064 403.489 39.48V66.84C399.745 65.256 396.001 64.824 392.257 64.824H384.913V76.776H398.593C403.777 76.776 409.681 76.056 414.145 74.04ZM561.844 45.96V74.472H554.788C553.06 96.072 536.068 107.304 515.476 107.304C492.004 107.304 473.428 91.464 473.428 67.272C473.428 58.2 477.172 48.696 484.228 42.792C482.356 39.624 481.636 36.312 481.636 32.712C481.636 14.424 494.308 0.167994 513.316 0.167994C518.788 0.167994 521.524 1.60799 525.412 1.60799C527.572 1.60799 529.3 1.176 530.308 0.167994V31.992C526.564 29.4 523.108 27.816 518.356 27.816C513.028 27.816 509.284 32.568 509.284 37.752C509.284 41.928 513.028 45.96 516.916 47.256C509.86 48.264 504.532 53.88 504.532 61.224C504.532 69.432 510.868 74.76 518.5 74.76C526.132 74.76 532.468 69.432 532.468 61.224C532.468 54.744 528.868 50.856 522.676 47.976V47.688H551.764C554.932 47.688 558.82 46.824 561.844 45.96ZM0.432 176.712V146.472H71.568V176.712C68.688 175.272 64.512 174.696 60.912 174.696H52.272V239.496C52.272 242.664 53.136 246.408 55.584 249H16.416C18.864 246.408 19.728 242.664 19.728 239.496V174.696H11.088C7.488 174.696 3.312 175.272 0.432 176.712ZM141.552 218.04V249H77.904C80.352 246.408 81.216 242.664 81.216 239.496V155.976C81.216 152.808 80.352 149.064 77.904 146.472H141.552V177.432C137.088 175.416 131.184 174.696 126 174.696H112.32V185.496H119.664C123.408 185.496 127.152 185.064 130.896 183.48V210.84C127.152 209.256 123.408 208.824 119.664 208.824H112.32V220.776H126C131.184 220.776 137.088 220.056 141.552 218.04ZM209.376 146.472H253.44C250.704 148.344 248.112 151.368 246.384 154.392L224.064 192.696L255.744 244.104C257.184 246.552 258.912 247.992 260.64 249H212.544C213.984 247.56 214.848 246.12 214.848 244.824C214.848 242.664 213.408 239.352 211.392 235.608L201.744 217.752H201.456L191.52 235.608C189.504 239.208 188.352 242.232 188.352 244.104C188.352 245.976 189.216 247.416 191.232 249H142.704C145.296 247.704 147.312 245.544 148.608 243.384L178.272 192.696L155.52 154.248C153.792 151.368 151.2 148.632 148.752 146.472H193.68C192.672 147.768 191.952 149.208 191.952 151.224C191.952 152.952 192.96 155.4 194.256 157.992L201.168 172.104H201.456L208.656 157.992C210.096 155.256 211.536 152.952 211.536 151.368C211.536 149.064 210.672 147.624 209.376 146.472ZM256.994 176.712V146.472H328.13V176.712C325.25 175.272 321.074 174.696 317.474 174.696H308.834V239.496C308.834 242.664 309.698 246.408 312.146 249H272.978C275.426 246.408 276.29 242.664 276.29 239.496V174.696H267.65C264.05 174.696 259.874 175.272 256.994 176.712ZM337.778 210.12V155.976C337.778 152.808 336.914 149.064 334.466 146.472H373.634C371.186 149.064 370.322 152.808 370.322 155.976V207.96C370.322 216.024 372.338 220.2 379.538 220.2C386.882 220.2 388.466 216.024 388.466 207.96V155.976C388.466 152.808 387.602 149.064 385.154 146.472H424.322C421.874 149.064 421.01 152.808 421.01 155.976V210.12C421.01 233.016 401.282 251.304 378.962 251.304C356.642 251.304 337.778 233.016 337.778 210.12ZM438.145 239.496V144.168C440.449 146.184 443.617 147.48 447.361 147.48C453.553 147.48 460.465 144.168 472.129 144.168C494.305 144.168 512.305 156.696 512.305 180.312C512.305 188.376 508.705 196.728 503.233 202.776C514.753 208.68 523.681 222.648 523.681 239.496C523.681 242.664 524.545 246.408 526.993 249H487.825C490.273 246.408 491.137 242.664 491.137 239.496C491.137 231.144 481.921 221.352 470.689 219.048V239.496C470.689 242.664 471.553 246.408 474.001 249H434.833C437.281 246.408 438.145 242.664 438.145 239.496ZM470.689 173.544V192.552C476.017 192.552 482.929 190.68 482.929 183.048C482.929 175.416 476.017 173.544 470.689 173.544ZM595.968 218.04V249H532.32C534.768 246.408 535.632 242.664 535.632 239.496V155.976C535.632 152.808 534.768 149.064 532.32 146.472H595.968V177.432C591.504 175.416 585.6 174.696 580.416 174.696H566.736V185.496H574.08C577.824 185.496 581.568 185.064 585.312 183.48V210.84C581.568 209.256 577.824 208.824 574.08 208.824H566.736V220.776H580.416C585.6 220.776 591.504 220.056 595.968 218.04Z" fill="white"/>
</svg>
