<svg fill="none" height="147" viewBox="0 0 132 147" width="132" xmlns="http://www.w3.org/2000/svg"><path d="m24.5132 124.674-15.67043-38.2208 20.06573-33.0607 54.8464-11.8484c3.4398 2.0385 11.0074 8.2939 13.7593 17.0081 2.7518 8.7143-2.1658 23.633-4.9686 30.0031-.3185 2.6117-.9556 9.5169-.9556 16.2437 0 6.727-3.6946 10.574-5.5419 11.657z" fill="#ffe6c8"/><path d="m21.8377 33.7089c-23.6966 17.3904-23.88769 29.6209-12.23048 56.7574l27.13648-27.5187c4.0132-4.6502 39.5582-22.359 56.9485-12.0395-11.1573-33.472-45.2072-36.7549-71.8545-17.1992z" fill="#000"/><path d="m21.5717 32.0136c13.4358-9.6389 28.7622-13.7084 42.292-11.0918 13.8212 2.673 25.5387 12.2842 31.2783 29.5029.2019.6057.0068 1.2732-.4902 1.6738-.4971.4007-1.1912.4499-1.7403.1241-3.9927-2.3692-9.1379-3.188-14.8164-2.9141-5.6641.2732-11.7249 1.6274-17.4258 3.4609-5.6946 1.8316-10.9793 4.1253-15.0781 6.2422-2.0495 1.0586-3.7885 2.0654-5.125 2.9395-1.2025.7865-1.9948 1.4117-2.4101 1.8291l-.1553.166c-.0221.0256-.0446.0511-.0684.0752l-27.1367 27.5185c-.3573.3624-.87195.523-1.37206.4288-.50004-.0944-.92024-.4319-1.12109-.8995-5.82514-13.5602-8.884258-23.7872-7.242189-32.9072 1.658929-9.2134 8.029539-16.9208 19.972639-25.6855zm41.7119-8.0899c-12.5324-2.4238-27.0207 1.313-39.9277 10.5723l-.6133.4453c-11.7535 8.6255-17.32698 15.7292-18.77345 23.7627-1.38658 7.7015.9425 16.5967 6.15335 29.0605l25.5322-25.8906c.6613-.7373 1.7794-1.593 3.1377-2.4814 1.4435-.9441 3.2766-2.0033 5.3955-3.0977 4.2379-2.1887 9.6791-4.5486 15.5459-6.4355 5.8606-1.8849 12.1972-3.3143 18.2139-3.6045 4.5824-.221 9.0582.2156 13.0117 1.6758-5.7456-14.0457-15.9508-21.7392-27.6758-24.0069z" fill="#000"/><path d="m61.2285 23.8196c4.6322-.3348 8.466 3.4218 10.5437 6.8663 2.7899 4.5989 4.2727 9.6053 5.6469 14.5592l.3956 1.4723.0229.1417c.011.1432-.0162.2895-.082.421-.0879.1753-.2357.3092-.4155.3742-.1799.0649-.3796.0567-.5591-.0221-.1796-.079-.3239-.2225-.4047-.3966-.2149-.4653-.4284-.9222-.6404-1.3704-2.1873-4.6013-4.4242-9.2018-6.9439-13.3406-1.9674-3.1538-4.0742-6.2781-7.6424-6.8452-.4487-.0739-.9043-.1103-1.3803-.1099-.1894.0013-.3795-.0657-.5284-.1907-.149-.1252-.2446-.2975-.2669-.4848-.0222-.1873.0299-.3776.1455-.5343.1155-.1564.2847-.266.4692-.3091.5369-.1196 1.0775-.1997 1.6398-.231z" fill="#656565"/><path d="m78.9773 102.124c-12.0395-28.0925 12.0394-35.1633 16.0526-23.6972-1.274 5.9879-3.7456 19.5689-3.4399 25.9902-5.8095-.765-10.8291-1.848-12.6127-2.293z" fill="#fff"/><path d="m100.763 104.226c8.217-10.1288-1.3378-19.6839-8.9818-13.1864l-4.2043 17.1994z" fill="#ffe6c8"/><path d="m62.7046 48.4155c9.308-3.1513 18.1191-4.2773 24.8877-2.6348 3.4176.8295 6.3953 2.3867 8.5976 4.8262 2.2141 2.4526 3.5101 5.6488 3.8028 9.5059l.0523.7734c.474 7.9146-1.1513 13.62-2.8453 19.0381-1.7387 5.5612-3.5078 10.72-3.5078 17.9951h-4.2041c0-8.0129 1.9847-13.7652 3.6992-19.249 1.6514-5.2816 3.0906-10.4024 2.6611-17.542l-.0478-.6973c-.2329-3.0701-1.2304-5.3441-2.7315-7.0068-1.5128-1.6758-3.6727-2.8791-6.4687-3.5576-5.659-1.3732-13.5818-.5043-22.5479 2.5312-17.8782 6.0531-38.8441 20.3588-51.9423 39.6319l-3.4766-2.3633c13.656-20.0935 35.4015-34.9301 54.0713-41.251z" fill="#000"/><path d="m108.98 1.98596c-36.6895 0-32.1031 34.68294-71.4701 61.62834 35.7361-22.359 58.2862-19.8747 60.5776-3.9155 41.0885-16.3414 38.9865-57.71284 10.8925-57.71284z" fill="#a5ff80"/><path d="m99.2374.925407c8.5086-1.604465 18.6726-1.774851 25.6966 4.928713 8.769 8.36238 7.851 22.08088 2.715 31.66598-5.342 9.9524-13.202 16.6844-24.4 22.1153-2.788 1.2053-7.4672 3.9116-7.5067-1.3799-.9482-3.1187-2.0087-4.3522-3.7969-5.8408-3.5349-2.7674-8.6689-3.3695-13.6181-2.9844-9.9973.8661-19.7494 4.964-28.8946 9.7217-3.6807 1.9342-7.2478 4.0112-10.8076 6.2441-.3717-.5941-.7435-1.1881-1.1152-1.7822-.3957-.5782-.7918-1.1562-1.1875-1.7344 3.4502-2.3533 6.7079-4.8714 9.7851-7.5674 12.7421-10.7922 20.7192-25.4682 31.2422-39.1728 5.3209-6.7831 13.0636-12.56593 21.8877-14.213893zm22.9706 7.803713c-5.43-5.34839-14.552-5.39245-22.165-3.90821-7.9052 1.52399-14.4999 6.41999-19.5683 12.85059-8.4425 11.0083-15.7947 23.8283-25.874 34.332 7.356-3.3262 15.0997-5.9373 23.415-6.6533 5.4668-.385 11.5532.0995 16.4366 3.876 2.3615 1.7408 4.3244 5.1038 4.8925 7.0058.141 2.0432 1.6662-.1641 3.4402-.8232 7.54-3.6872 16.938-10.9738 21.333-19.7236 4.661-8.6569 5.088-20.3763-1.91-26.95608z" fill="#000"/><path d="m34.8925 96.268c2.7951-2.0889 6.4212-3.76 10.3418-3.3828 3.408.312 6.4528 2.2982 8.3819 4.8554.1814.2394.3421.4623.5107.7246l.1719.2774.0459.0947c.0972.2264.1268.484.0771.7324-.0569.284-.2113.5323-.4375.6953s-.5103.232-.7978.196c-.2871-.035-.553-.172-.7461-.376-.1575-.1338-.4314-.3788-.6738-.5641-2.0948-1.6081-4.5319-2.4199-6.9151-2.6406-2.7436-.2738-5.7467.3053-8.6797 1.5762-.2987.1281-.6028.2671-.9121.4169-.2548.1237-.5548.1558-.8369.084-.282-.072-.523-.2412-.6748-.4785-.1517-.2373-.2042-.5271-.1514-.8135.0531-.286.2079-.5441.4268-.7236.2911-.2343.5808-.4589.8691-.6738z" fill="#000"/><path d="m21.6466 93.9061-7.8352 5.9242c3.185 7.3257 10.0902 23.3907 12.2305 29.0477 1.72 5.16 7.0708 12.804 15.8615 9.364 14.3327 8.982 28.4761 8.884 39.176-2.676 11.2768 2.676 28.4746-12.612 21.2126-28.092-5.8098-12.383-17.9639-8.217-23.3147-4.586.3185.51 1.1848 2.14 2.1021 4.586-3.9749 3.517-12.2305 4.268-15.8615 4.205.1274-.383.5351-1.453 1.1466-2.676-16.6259-6.115-27.5187-.573-35.9272 6.88-3.3634-3.058-7.2619-15.9253-8.7907-21.9769z" fill="#daa3ff"/><path d="m105.797 31.1827c-.451 2.4352-1.197 4.8028-2.153 7.1036-.315.7536-.699 1.4794-1.15 2.172-.156.2384-.312.4634-.49.6982l-.187.2396-.074.0721c-.08.0662-.178.1143-.283.1351-.14.0276-.281.006-.397-.0638-.117-.0699-.202-.1846-.244-.3211-.041-.1363-.034-.2837.015-.412.099-.2978.211-.6528.31-.9843.222-.7372.435-1.4766.668-2.21.711-2.2432 1.158-4.5523 1.588-6.8721.438-2.3734.86-4.7767 1.105-7.2029.081-.8033.188-1.617.311-2.4305.054-.3527.11-.711.169-1.0748.383.0008.766.0011 1.148.0019.057.3701.107.7367.148 1.0988.094.8346.141 1.6769.133 2.5084-.025 2.5089-.157 5.0504-.617 7.5418z" fill="#000"/><path d="m114.87 29.2717c-.451 2.4351-1.197 4.8027-2.153 7.1035-.315.7537-.699 1.4794-1.15 2.172-.156.2385-.312.4635-.49.6983l-.187.2396-.074.0721c-.08.0662-.178.1142-.283.1351-.14.0275-.281.006-.397-.0638-.117-.07-.202-.1847-.244-.3211-.041-.1363-.034-.2837.015-.412.099-.2978.211-.6528.31-.9843.222-.7372.435-1.4767.668-2.21.711-2.2432 1.158-4.5524 1.588-6.8721.438-2.3734.86-4.7767 1.105-7.203.081-.8032.188-1.617.311-2.4304.054-.3527.11-.711.169-1.0748.383.0008.766.0011 1.148.0019.057.3701.107.7366.148 1.0987.094.8347.141 1.677.133 2.5084-.025 2.5089-.157 5.0505-.617 7.5419z" fill="#000"/><path d="m108.012 35.4844c-2.403.5994-4.867.9026-7.357.9872-.8161.0266-1.6358-.0218-2.4531-.1449-.2817-.0431-.5511-.0917-.8388-.1565l-.2953-.0703-.0964-.0377c-.0936-.0455-.1779-.1147-.2403-.2014-.0831-.1158-.122-.253-.1068-.388.0153-.1351.0843-.2603.1912-.3547.1069-.0941.2439-.1488.381-.1574.3122-.0331.6814-.0791 1.0243-.1261.7629-.1038 1.524-.2169 2.2882-.3087 2.336-.284 4.622-.8351 6.911-1.4062 2.342-.5858 4.703-1.1991 7.013-1.9827.764-.2592 1.549-.4997 2.34-.7254.343-.0974.693-.1945 1.048-.2916.158.3481.317.6966.475 1.0447-.313.2059-.626.4033-.939.591-.72.4314-1.467.8239-2.227 1.1612-2.293 1.0177-4.66 1.9525-7.118 2.5675z" fill="#000"/><path d="m109.43 27.9268c-2.403.5995-4.867.9027-7.357.9873-.816.0266-1.636-.0219-2.4531-.1449-.2817-.0431-.5511-.0917-.8388-.1565l-.2953-.0703-.0964-.0378c-.0936-.0455-.1779-.1146-.2404-.2014-.083-.1157-.1219-.253-.1067-.3879.0152-.1351.0842-.2603.1912-.3547.1069-.0941.2439-.1488.381-.1574.3122-.0331.6814-.0791 1.0243-.1261.7632-.1038 1.5242-.2169 2.2882-.3088 2.336-.2839 4.622-.835 6.911-1.4061 2.342-.5858 4.703-1.1991 7.013-1.9827.764-.2593 1.549-.4997 2.34-.7255.343-.0974.693-.1944 1.048-.2916.158.3481.317.6967.475 1.0448-.313.2059-.626.4033-.939.5909-.72.4314-1.467.8239-2.227 1.1613-2.293 1.0177-4.66 1.9525-7.118 2.5674z" fill="#000"/><path d="m42.3322 70.9661c1.6626-.277 3.3415-.1772 4.9453.1972.4134.0984.8244.2144 1.2383.3496l.415.1416.126.0586c.121.0695.2261.1707.3007.293.0993.1632.1365.3509.1016.5303-.0349.1793-.1397.3391-.293.4531-.1534.1139-.3428.1718-.5273.166-.5455-.0173-1.0638-.0121-1.5684.0098-1.469.0566-2.8422.2598-4.1611.5986-3.0707.7757-5.5829 2.8252-7.5898 5.3438-1.7273 2.1578-3.1773 4.6404-4.336 7.3066-.6531 1.5071-1.3028 3.0548-1.9111 4.6074-.1962.5086-.3896 1.0206-.5566 1.4795-.0585.1752-.1779.3331-.3379.4375-.1603.1043-.3468.1468-.5274.1172-.1807-.0296-.3443-.1301-.4629-.2803-.1181-.15-.1803-.3379-.1797-.5224.0124-.5744.0493-1.1177.1104-1.6963.1785-1.7496.5423-3.5056 1.0986-5.1914.9878-2.9749 2.3075-5.9076 4.3506-8.4649 2.3552-2.9813 5.8951-5.3275 9.7647-5.9345z" fill="#000"/><path d="m73.8411 100.059c3.244-.701 6.1055 2.02 7.0518 4.354.2976.635.5085 1.249.6709 1.891.0873.343.1503.662.2012.995l.0468.34.0039.138c-.0074.139-.0488.278-.123.399-.099.162-.2466.281-.4199.332-.1736.052-.3627.033-.5342-.049-.1712-.083-.3105-.222-.3926-.385-.1931-.386-.3708-.724-.5664-1.093-.2777-.516-.5538-.996-.8691-1.472-1.2136-1.843-2.89-2.65-4.4971-2.303-2.3419.443-4.7362 2.787-6.4697 5.318-.7365 1.075-1.4387 2.17-2.1367 3.319-.2152.353-.4293.709-.6455 1.079-.0941.16-.245.289-.4249.357-.1801.067-.3737.068-.5449-.001-.171-.07-.3085-.205-.3906-.379-.0819-.174-.1002-.372-.0557-.553.1096-.432.2264-.85.3555-1.266.4227-1.353.9611-2.654 1.6719-3.908 1.7237-2.908 3.8626-6.167 8.0683-7.113z" fill="#000"/><path d="m3.72379 118.941c-5.7739-8.791.72358-19.8751 12.38081-13.569l6.1153 13.569c-2.8666 7.835-12.22013 9.555-18.49611 0z" fill="#ffe6c8"/><g fill="#000"><path d="m71.6277 106.363c.1805.006.3592.065.5019.162.0316.021.0633.043.0948.064.2923.2.5769.407.7841.673.1941.25.3114.559.4209.874l.0381.109.0332.125c.0248.13.0236.268-.0058.4-.0397.175-.1269.325-.2569.426s-.2966.148-.4765.143c-.1794-.005-.3577-.062-.501-.155-.0321-.021-.0647-.042-.0967-.064-.2785-.183-.5491-.373-.7432-.623-.2071-.266-.337-.593-.4589-.925-.0131-.036-.0261-.072-.0391-.108-.0583-.162-.0727-.351-.0342-.527.0389-.177.1275-.328.2588-.43.1314-.102.2995-.15.4805-.144z"/><path d="m82.8264 60.0723c3.357-.0813 6.9617.6146 9.8584 2.7471 3.1027 2.2543 4.8002 5.9585 5.2519 9.4384.0287.2056.0542.4091.0762.6133l.0576.6192-.002.1396c-.014.1402-.0641.2784-.1474.3965-.1111.1572-.2711.2659-.4522.3047-.1813.0387-.3723.0046-.5381-.0938-.1655-.0984-.2917-.2531-.3554-.4287-.1338-.3682-.2734-.7135-.4238-1.0605-1.2836-2.9793-3.2486-5.3302-5.5938-7.042-2.1927-1.6221-4.8951-2.8487-7.834-3.2031-.5149-.0613-1.0315-.1301-1.5625-.1963-.3621-.0474-.75-.0915-1.1172-.1319-.1773-.016-.3566-.0892-.498-.2099-.1412-.121-.2334-.2787-.2588-.4512-.0254-.1728.0174-.3512.1182-.5078.1007-.1562.2508-.2774.416-.3438.3885-.1515.8148-.2754 1.2197-.3681.594-.1331 1.189-.2071 1.7852-.2217z"/><path d="m76.4009 104.882c.1567.026.2989.113.4092.244.11.131.179.295.1973.457.0043.04.0085.08.0127.12.038.353.0671.707.0107 1.045-.0582.349-.1976.686-.3447 1.02-.0161.037-.0316.074-.0479.111-.0682.153-.1872.291-.3369.383-.1501.091-.3185.128-.4804.101s-.3086-.117-.4209-.252c-.1121-.135-.1805-.304-.1953-.472-.0034-.04-.0065-.079-.0098-.12-.0307-.363-.0533-.726.0049-1.076.0563-.338.1989-.663.3496-.985.017-.037.0336-.073.0508-.11l.0615-.107c.0694-.103.1628-.195.2724-.261.1469-.088.3101-.124.4668-.098z"/><path d="m4.00551 103.826c3.09282-2.237 7.16629-1.917 10.19239-.665.8544.342 1.6529.741 2.4521 1.202.2577.15.45.396.5332.685s.0508.597-.0908.858c-.1416.262-.3818.458-.6689.546-.2872.089-.5979.063-.8643-.071-.7382-.369-1.4602-.673-2.206-.92-5.55252-2.251-10.99882 2.129-10.1348 7.668.60728 7.685 11.9682 15.364 16.8623 7.455.4242-.629.7769-1.311 1.0625-2.037l.0459-.103c.1179-.232.3118-.42.5518-.53.2743-.125.5858-.138.8671-.035.2815.103.511.314.6397.587.1286.273.1455.585.0488.868-.3039.884-.6949 1.737-1.1904 2.546-2.4746 4.531-9.1839 6.342-13.68653 3.631-4.45135-2.549-7.708888-6.819-8.346678-12.047-.400008-3.474.837409-7.449 3.932618-9.638z"/><path d="m4.00551 103.826c3.09282-2.237 7.16629-1.917 10.19239-.665.8544.342 1.6529.741 2.4521 1.202.2577.15.45.396.5332.685s.0508.597-.0908.858c-.1416.262-.3818.458-.6689.546-.2872.089-.5979.063-.8643-.071-.7382-.369-1.4602-.673-2.206-.92-5.55252-2.251-10.99882 2.129-10.1348 7.668.60728 7.685 11.9682 15.364 16.8623 7.455.4242-.629.7769-1.311 1.0625-2.037l.0459-.103c.1179-.232.3118-.42.5518-.53.2743-.125.5858-.138.8671-.035.2815.103.511.314.6397.587.1286.273.1455.585.0488.868-.3039.884-.6949 1.737-1.1904 2.546-2.4746 4.531-9.1839 6.342-13.68653 3.631-4.45135-2.549-7.708888-6.819-8.346678-12.047-.400008-3.474.837409-7.449 3.932618-9.638z"/><path d="m10.2986 110.313c3.3853-.778 6.6945.352 9.4151 2.036l.5869.382.1025.077c.2276.19.3789.457.4268.754.0548.339-.0307.691-.2354.975-.2046.284-.5115.477-.8505.532-.3391.056-.6838-.029-.9561-.238-.1589-.122-.3154-.238-.4785-.352-2.221-1.566-5.0294-2.478-7.5332-2.02-.7405.142-1.45277.347-2.06446.728-.14605.091-.28607.193-.417.305-.13594.126-.31754.207-.50879.221-.19137.013-.37648-.041-.5205-.155-.14387-.115-.23756-.283-.26758-.472-.02981-.189.00745-.384.09961-.545.1361-.223.29528-.437.46972-.633.73194-.822 1.72669-1.349 2.7314-1.595z"/><path d="m92.492 97.1995c.9289-2.051 3.0529-3.4063 5.0762-3.2627l.3281.0264.1611.0361c.158.05.3043.1411.4199.2657.1542.1664.2412.3781.2413.5966 0 .2186-.0871.4303-.2413.5967-.1541.1661-.3631.2725-.581.3018-.0798.0124-.1554.0258-.2315.041-1.353.2404-2.4092 1.1685-2.6103 2.3047-.0077.0551-.0122.1098-.0098.1514-.0416.3708-.2519.6845-.5722.874-.32.1895-.7271.2383-1.1182.1406-.3912-.0978-.7277-.3325-.9209-.6504-.1934-.3179-.2315-.6933-.0938-1.04.0464-.1345.0989-.2643.1524-.3819z"/><path d="m97.6815 87.4104c2.2786.1737 4.3125 1.2903 5.7235 3.0215 2.877 3.5297 2.999 9.2665-1.455 14.7571l-2.374-1.927c3.763-4.638 3.216-8.743 1.459-10.8985-.906-1.1111-2.1802-1.7971-3.5859-1.9043-1.3947-.1062-3.0368.3504-4.6777 1.7451l-1.9805-2.33c2.181-1.8538 4.6007-2.6383 6.8906-2.4639z"/><path d="m44.2244 105.61c6.5903-1.813 13.6059-1.874 20.2393.253.6802.228 1.3843.498 2.0469.798.4188.19.7443.538.9053.969.1609.431.1442.909-.0469 1.328-.1912.419-.5409.745-.9717.906-.4307.161-.9074.144-1.3252-.047-.5367-.248-1.1296-.479-1.7129-.677-5.7518-1.887-12.3-1.871-18.2285-.265-5.1585 1.403-10.0626 3.893-14.0293 7.706-.4797.461-.9282.919-1.3799 1.413-.1349.148-.3235.243-.5264.263-.2028.02-.4028-.038-.5595-.161-.1568-.124-.259-.305-.2871-.507-.028-.202.0205-.408.1328-.573l.2998-.431c.3007-.426.6079-.838.9365-1.255 3.5905-4.605 8.7783-8.134 14.5068-9.72z"/><path d="m8.49052 87.0081c.46089-.1947.98021-.1986 1.44434-.0107.46414.1879.83514.5523 1.03124 1.0127.464 1.09.9349 2.2005 1.4102 3.3232 3.9001 9.2137 7.7846 18.4527 11.8066 27.5877 3.9576 8.683 8.2536 20.58 16.6904 18.934 1.1542-.288 2.225-.756 3.084-1.597.5569-.545 1.0092-1.268 1.2569-2.131l.0937-.378.0459-.173c.0607-.169.1635-.327.3008-.451.1831-.165.4108-.257.6455-.258.2349 0 .4633.093.6465.258.1829.166.3044.391.3467.624.2211 1.376.03 2.935-.6885 4.301-.9495 1.847-2.7954 3.211-4.7695 3.688-6.3685 1.456-11.7427-2.898-14.6397-7.431-2.8171-4.624-4.5494-9.2-6.6201-13.803-4.0097-9.2-7.8513-18.469-11.70216-27.698-.46911-1.124-.93303-2.2348-1.38965-3.3233-.19361-.4614-.19642-.9814-.00781-1.4453.18873-.464.55359-.8344 1.01464-1.0293z"/><path d="m43.4323 137.859c-.1946.16-.9093.748.9746-.8 1.8618-.583 1.3599.775 2.1045 1.105 4.7715 4.195 12.0696 5.276 18.666 4.236 6.2298-.993 12.4915-3.835 16.0058-8.896.6017-.874 1.1868-1.763 1.712-2.708.3758-.678.7196-1.377 1.0166-2.126l.0371-.084c.0941-.193.246-.361.4365-.473.2179-.128.4667-.174.7031-.124.2366.05.4459.193.5938.398.1473.205.2199.455.209.699-.0527.91-.1826 1.811-.4102 2.704-.3159 1.244-.824 2.459-1.5176 3.548-4.0763 6.304-11.1391 9.739-18.1592 10.926-7.4265 1.192-15.7831.242-21.9541-5.09-.514-.783-2.1846-.63-1.3916-2.514 1.8822-1.547 1.1687-.961.9737-.801"/><path d="m18.1476 36.577c-5.542-7.6441 8.5996-15.4793 10.7017-7.6441-4.4336 3.6691-8.9818 6.6249-10.7017 7.6441z"/><path d="m81.2218 99.7946c4.5214-2.4958 10.2693-3.2867 15.3613-1.1788 5.1599 2.0072 8.6679 7.5712 8.8479 12.9712.418 11.984-7.6471 24.851-20.2893 26.251-1.2718.133-2.5568.135-3.8301.004-.424-.043-.8153-.253-1.0869-.583-.2713-.329-.4012-.752-.3613-1.176.04-.425.2467-.817.5752-1.09.3285-.274.752-.406 1.1767-.369 1.052.088 2.11.067 3.1572-.062 10.3814-1.244 17.3525-12.536 16.9855-22.77.026-9.141-11.1357-14.1264-19.4737-9.897-.9965.458-1.9514 1.004-2.8653 1.641-.2232.156-.5005.221-.7724.18-.2718-.041-.5159-.184-.6797-.401-.1639-.217-.2345-.492-.1992-.765.0354-.272.1745-.52.3857-.692l.3633-.288c.8537-.661 1.7543-1.254 2.7051-1.7754z"/><path d="m47.0644 113.046c.2565-.091.5312-.086.7725.018.2412.104.4332.3.543.549.1094.25.1266.531.0537.785-.0523.171-.1084.34-.168.506-.5294 1.48-1.5014 2.887-2.8115 3.834-1.3639.99-2.9778 1.479-4.5996 1.604-.1835.013-.3436.021-.5743.024-.2564-.01-.5108-.11-.708-.287-.1973-.176-.3211-.413-.3447-.668-.0235-.254.0546-.508.2158-.718.1614-.21.3931-.356.6436-.414.0649-.027.2319-.073.3545-.118 1.208-.426 2.3147-1.088 3.2842-1.795.9362-.681 1.8073-1.453 2.5039-2.468.0776-.113.1542-.23.2285-.352l.0537-.083c.135-.188.3284-.337.5527-.417z"/><path d="m19.8499 99.6144c-.0684.1873-.2001.3404-.3719.4276-.1718.087-.3727.103-.5641.048-.1913-.055-.3567-.1794-.4644-.3404-.0638-.0968-.1264-.1941-.1875-.2921-.5406-.866-.9884-1.7916-1.2695-2.7602-.2914-1.0086-.4127-2.053-.4454-3.1021-.0041-.1206-.006-.2284-.0071-.3584.0031-.1941.0764-.3875.2077-.5378.1313-.15.309-.2451.5011-.2644s.3857.0383.5443.1593c.1585.1211.2684.2964.3101.486.0207.0769.0473.1875.0739.2886.2455.9205.5534 1.8398.8162 2.7487.2541.8751.4673 1.762.7557 2.6291.0326.098.0664.1955.1013.2931l.0378.1404c.0251.1434.0129.2944-.0382.4346z"/><path d="m44.4905 116.075c.3984-.08.806.009 1.129.255.0924.08.3249.234.5078.348 3.5358 2.172 8.114 2.67 12.1054 1.156.2198-.08.4424-.168.666-.261l.0791-.03c.1882-.059.3943-.057.584.01.2169.077.3941.232.4951.434.1011.202.1186.436.0499.656-.0688.219-.2186.404-.4141.518-.2361.136-.473.265-.71.384-4.3751 2.249-9.7816 1.848-14.2597-.255-.261-.125-.4899-.233-.7989-.415-.3516-.203-.5912-.545-.6699-.944-.0786-.399.0108-.824.2451-1.176.2346-.352.5928-.599.9912-.68z"/></g><path d="m20.8838 36.8054c.1959.0073.3792.0861.5127.2226.1335.1366.208.3216.2109.5176.0028.1958-.0663.3864-.1904.5322-.4007.4698-.7731.9281-1.1377 1.4004-3.0177 3.7183-4.0451 7.7804-3.1191 12.1778 1.0884 5.6776 3.2886 11.5945 5.1865 17.4707l.5791 1.7451.0332.1406c.0198.1434-.0003.2922-.0596.4277-.0791.1808-.2219.3234-.4003.3975-.1784.074-.3797.0744-.5635.0029-.1839-.0715-.3348-.2098-.4219-.3828-.2806-.5605-.556-1.1088-.8252-1.6455-2.7245-5.5805-5.7111-11.0669-6.9766-17.5488-1.202-5.0815 1.4019-11.0059 5.2041-14.0537.4688-.4229.9386-.8212 1.4317-1.2256.1486-.1207.3405-.1859.5361-.1787z" fill="#656565"/><path d="m20.3135 89.1713c.1913-.0494.3951-.0204.5684.0791.1731.0995.3015.2619.3584.4512.1211.3946.2687.8656.4023 1.2793 1.4821 4.5805 3.1365 9.1141 4.9815 13.5411 1.2751 3.047 2.6348 6.052 4.2333 8.905.1083.193.2188.387.3301.579l.3369.574.0586.11c.1223.261.1489.559.0743.841-.0854.322-.2971.598-.587.766-.2898.169-.634.216-.956.131-.3222-.085-.5964-.295-.7608-.585-.2277-.401-.4546-.812-.6738-1.219-1.6153-2.998-3.0067-6.08-4.2314-9.224-1.7707-4.566-3.2153-9.2369-4.376-13.9777-.104-.431-.2182-.9076-.3125-1.3379-.0419-.1931-.0084-.3975.0947-.5684.1034-.1709.2678-.2953.459-.3447z" fill="#000"/><path d="m80.1698 74.379c2.7911-2.1398 6.1862-2.9389 9.2207-2.3506 2.9678.5755 5.5629 2.4821 6.7881 5.6465l.1143.3096.0381.1318c.1582.6593-.2057 1.3444-.8594 1.5733-.6538.2286-1.3649-.0803-1.6523-.6944l-.0518-.126-.0811-.2207c-.8687-2.2494-2.6707-3.5792-4.8056-3.9931-2.2326-.4328-4.8577.1406-7.083 1.8467-4.3398 3.3271-7.4797 11.354-1.5909 25.0949.2909.679-.0241 1.465-.7031 1.756-.679.29-1.4648-.024-1.7558-.703-6.1506-14.3509-3.2712-23.9063 2.4218-28.271z" fill="#000"/><path d="m86.6214 73.8404c3.0047 0 3.032 2.7888 2.1727 7.003-.153.7503-.7183 1.347-1.4536 1.5604l-1.664.4831c-1.1398.3309-1.3162 1.872-.2807 2.4519l.5972.3344c.8233.461 1.236 1.4137 1.0228 2.3328-.8687 3.7438-1.4947 7.3185-1.1588 10.6777-3.8219 1.3763-6.561 2.9303-6.8797 3.0573-3.3124-8.7904-7.7969-26.2189 7.6441-27.9006z" fill="#000"/></svg>