<svg width="132" height="147" viewBox="0 0 132 147" fill="none" xmlns="http://www.w3.org/2000/svg">
<path d="M24.5132 124.674L8.84277 86.4532L28.9085 53.3925L83.7549 41.5441C87.1947 43.5826 94.7623 49.838 97.5142 58.5522C100.266 67.2665 95.3484 82.1852 92.5456 88.5553C92.2271 91.167 91.59 98.0722 91.59 104.799C91.59 111.526 87.8954 115.373 86.0481 116.456L24.5132 124.674Z" fill="#FFE6C8"/>
<path d="M21.8377 33.7089C-1.8589 51.0993 -2.04999 63.3298 9.60722 90.4663L36.7437 62.9476C40.7569 58.2974 76.3019 40.5886 93.6922 50.9081C82.5349 17.4361 48.485 14.1532 21.8377 33.7089Z" fill="black"/>
<path d="M21.5717 32.0136C35.0075 22.3747 50.3339 18.3052 63.8637 20.9218C77.6849 23.5948 89.4024 33.206 95.142 50.4247C95.3439 51.0304 95.1488 51.6979 94.6518 52.0985C94.1547 52.4992 93.4606 52.5484 92.9115 52.2226C88.9188 49.8534 83.7736 49.0346 78.0951 49.3085C72.431 49.5817 66.3702 50.9359 60.6693 52.7694C54.9747 54.601 49.69 56.8947 45.5912 59.0116C43.5417 60.0702 41.8027 61.077 40.4662 61.9511C39.2637 62.7376 38.4714 63.3628 38.0561 63.7802L37.9008 63.9462C37.8787 63.9718 37.8562 63.9973 37.8324 64.0214L10.6957 91.5399C10.3384 91.9023 9.82375 92.0629 9.32364 91.9687C8.8236 91.8743 8.4034 91.5368 8.20255 91.0692C2.37741 77.509 -0.681708 67.282 0.960361 58.162C2.61929 48.9486 8.9899 41.2412 20.933 32.4765L21.5717 32.0136ZM63.2836 23.9237C50.7512 21.4999 36.2629 25.2367 23.3559 34.496L22.7426 34.9413C10.9891 43.5668 5.41562 50.6705 3.96915 58.704C2.58257 66.4055 4.91165 75.3007 10.1225 87.7645L35.6547 61.8739C36.316 61.1366 37.4341 60.2809 38.7924 59.3925C40.2359 58.4484 42.069 57.3892 44.1879 56.2948C48.4258 54.1061 53.867 51.7462 59.7338 49.8593C65.5944 47.9744 71.931 46.545 77.9477 46.2548C82.5301 46.0338 87.0059 46.4704 90.9594 47.9306C85.2138 33.8849 75.0086 26.1914 63.2836 23.9237Z" fill="black"/>
<path d="M61.2285 23.8196C65.8607 23.4848 69.6945 27.2414 71.7722 30.6859C74.5621 35.2848 76.0449 40.2912 77.4191 45.2451L77.8147 46.7174L77.8376 46.8591C77.8486 47.0023 77.8214 47.1486 77.7556 47.2801C77.6677 47.4554 77.5199 47.5893 77.3401 47.6543C77.1602 47.7192 76.9605 47.711 76.781 47.6322C76.6014 47.5532 76.4571 47.4097 76.3763 47.2356C76.1614 46.7703 75.9479 46.3134 75.7359 45.8652C73.5486 41.2639 71.3117 36.6634 68.792 32.5246C66.8246 29.3708 64.7178 26.2465 61.1496 25.6794C60.7009 25.6055 60.2453 25.5691 59.7693 25.5695C59.5799 25.5708 59.3898 25.5038 59.2409 25.3788C59.0919 25.2536 58.9963 25.0813 58.974 24.894C58.9518 24.7067 59.0039 24.5164 59.1195 24.3597C59.235 24.2033 59.4042 24.0937 59.5887 24.0506C60.1256 23.931 60.6662 23.8509 61.2285 23.8196Z" fill="#656565"/>
<path d="M78.9773 102.124C66.9378 74.0315 91.0167 66.9607 95.0299 78.4268C93.7559 84.4147 91.2843 97.9957 91.59 104.417C85.7805 103.652 80.7609 102.569 78.9773 102.124Z" fill="white"/>
<path d="M100.763 104.226C108.98 94.0972 99.4252 84.5421 91.7812 91.0396L87.5769 108.239L100.763 104.226Z" fill="#FFE6C8"/>
<path d="M62.7046 48.4155C72.0126 45.2642 80.8237 44.1382 87.5923 45.7807C91.0099 46.6102 93.9876 48.1674 96.1899 50.6069C98.404 53.0595 99.7 56.2557 99.9927 60.1128L100.045 60.8862C100.519 68.8008 98.8937 74.5062 97.1997 79.9243C95.461 85.4855 93.6919 90.6443 93.6919 97.9194H89.4878C89.4878 89.9065 91.4725 84.1542 93.187 78.6704C94.8384 73.3888 96.2776 68.268 95.8481 61.1284L95.8003 60.4311C95.5674 57.361 94.5699 55.087 93.0688 53.4243C91.556 51.7485 89.3961 50.5452 86.6001 49.8667C80.9411 48.4935 73.0183 49.3624 64.0522 52.3979C46.174 58.451 25.2081 72.7567 12.1099 92.0298L8.6333 89.6665C22.2893 69.573 44.0348 54.7364 62.7046 48.4155Z" fill="black"/>
<path d="M108.98 1.98596C72.2905 1.98596 76.8769 36.6689 37.5099 63.6143C73.246 41.2553 95.7961 43.7396 98.0875 59.6988C139.176 43.3574 137.074 1.98596 108.98 1.98596Z" fill="#A5FF80"/>
<path d="M99.2374 0.925407C107.746 -0.679058 117.91 -0.849444 124.934 5.85412C133.703 14.2165 132.785 27.935 127.649 37.5201C122.307 47.4725 114.447 54.2045 103.249 59.6354C100.461 60.8407 95.7818 63.547 95.7423 58.2555C94.7941 55.1368 93.7336 53.9033 91.9454 52.4147C88.4105 49.6473 83.2765 49.0452 78.3273 49.4303C68.33 50.2964 58.5779 54.3943 49.4327 59.152C45.752 61.0862 42.1849 63.1632 38.6251 65.3961C38.2534 64.802 37.8816 64.208 37.5099 63.6139C37.1142 63.0357 36.7181 62.4577 36.3224 61.8795C39.7726 59.5262 43.0303 57.0081 46.1075 54.3121C58.8496 43.5199 66.8267 28.8439 77.3497 15.1393C82.6706 8.3562 90.4133 2.57337 99.2374 0.925407ZM122.208 8.72912C116.778 3.38073 107.656 3.33667 100.043 4.82091C92.1378 6.3449 85.5431 11.2409 80.4747 17.6715C72.0322 28.6798 64.68 41.4998 54.6007 52.0035C61.9567 48.6773 69.7004 46.0662 78.0157 45.3502C83.4825 44.9652 89.5689 45.4497 94.4523 49.2262C96.8138 50.967 98.7767 54.33 99.3448 56.232C99.4858 58.2752 101.011 56.0679 102.785 55.4088C110.325 51.7216 119.723 44.435 124.118 35.6852C128.779 27.0283 129.206 15.3089 122.208 8.72912Z" fill="black"/>
<path d="M34.8925 96.268C37.6876 94.1791 41.3137 92.508 45.2343 92.8852C48.6423 93.1972 51.6871 95.1834 53.6162 97.7406C53.7976 97.98 53.9583 98.2029 54.1269 98.4652L54.2988 98.7426L54.3447 98.8373C54.4419 99.0637 54.4715 99.3213 54.4218 99.5697C54.3649 99.8537 54.2105 100.102 53.9843 100.265C53.7581 100.428 53.474 100.497 53.1865 100.461C52.8994 100.426 52.6335 100.289 52.4404 100.085C52.2829 99.9512 52.009 99.7062 51.7666 99.5209C49.6718 97.9128 47.2347 97.101 44.8515 96.8803C42.1079 96.6065 39.1048 97.1856 36.1718 98.4565C35.8731 98.5846 35.569 98.7236 35.2597 98.8734C35.0049 98.9971 34.7049 99.0292 34.4228 98.9574C34.1408 98.8854 33.8998 98.7162 33.748 98.4789C33.5963 98.2416 33.5438 97.9518 33.5966 97.6654C33.6497 97.3794 33.8045 97.1213 34.0234 96.9418C34.3145 96.7075 34.6042 96.4829 34.8925 96.268Z" fill="black"/>
<path d="M21.6466 93.9061L13.8114 99.8303C16.9964 107.156 23.9016 123.221 26.0419 128.878C27.7619 134.038 33.1127 141.682 41.9034 138.242C56.2361 147.224 70.3795 147.126 81.0794 135.566C92.3562 138.242 109.554 122.954 102.292 107.474C96.4822 95.091 84.3281 99.257 78.9773 102.888C79.2958 103.398 80.1621 105.028 81.0794 107.474C77.1045 110.991 68.8489 111.742 65.2179 111.679C65.3453 111.296 65.753 110.226 66.3645 109.003C49.7386 102.888 38.8458 108.43 30.4373 115.883C27.0739 112.825 23.1754 99.9577 21.6466 93.9061Z" fill="#DAA3FF"/>
<path d="M105.797 31.1827C105.346 33.6179 104.6 35.9855 103.644 38.2863C103.329 39.0399 102.945 39.7657 102.494 40.4583C102.338 40.6967 102.182 40.9217 102.004 41.1565L101.817 41.3961L101.743 41.4682C101.663 41.5344 101.565 41.5825 101.46 41.6033C101.32 41.6309 101.179 41.6093 101.063 41.5395C100.946 41.4696 100.861 41.3549 100.819 41.2184C100.778 41.0821 100.785 40.9347 100.834 40.8064C100.933 40.5086 101.045 40.1536 101.144 39.8221C101.366 39.0849 101.579 38.3455 101.812 37.6121C102.523 35.3689 102.97 33.0598 103.4 30.74C103.838 28.3666 104.26 25.9633 104.505 23.5371C104.586 22.7338 104.693 21.9201 104.816 21.1066C104.87 20.7539 104.926 20.3956 104.985 20.0318C105.368 20.0326 105.751 20.0329 106.133 20.0337C106.19 20.4038 106.24 20.7704 106.281 21.1325C106.375 21.9671 106.422 22.8094 106.414 23.6409C106.389 26.1498 106.257 28.6913 105.797 31.1827Z" fill="black"/>
<path d="M114.87 29.2717C114.419 31.7068 113.673 34.0744 112.717 36.3752C112.402 37.1289 112.018 37.8546 111.567 38.5472C111.411 38.7857 111.255 39.0107 111.077 39.2455L110.89 39.4851L110.816 39.5572C110.736 39.6234 110.638 39.6714 110.533 39.6923C110.393 39.7198 110.252 39.6983 110.136 39.6285C110.019 39.5585 109.934 39.4438 109.892 39.3074C109.851 39.1711 109.858 39.0237 109.907 38.8954C110.006 38.5976 110.118 38.2426 110.217 37.9111C110.439 37.1739 110.652 36.4344 110.885 35.7011C111.596 33.4579 112.043 31.1487 112.473 28.829C112.911 26.4556 113.333 24.0523 113.578 21.626C113.659 20.8228 113.766 20.009 113.889 19.1956C113.943 18.8429 113.999 18.4846 114.058 18.1208C114.441 18.1216 114.824 18.1219 115.206 18.1227C115.263 18.4928 115.313 18.8593 115.354 19.2214C115.448 20.0561 115.495 20.8984 115.487 21.7298C115.462 24.2387 115.33 26.7803 114.87 29.2717Z" fill="black"/>
<path d="M108.012 35.4844C105.609 36.0838 103.145 36.387 100.655 36.4716C99.8389 36.4982 99.0192 36.4498 98.2019 36.3267C97.9202 36.2836 97.6508 36.235 97.3631 36.1702L97.0678 36.0999L96.9714 36.0622C96.8778 36.0167 96.7935 35.9475 96.7311 35.8608C96.648 35.745 96.6091 35.6078 96.6243 35.4728C96.6396 35.3377 96.7086 35.2125 96.8155 35.1181C96.9224 35.024 97.0594 34.9693 97.1965 34.9607C97.5087 34.9276 97.8779 34.8816 98.2208 34.8346C98.9837 34.7308 99.7448 34.6177 100.509 34.5259C102.845 34.2419 105.131 33.6908 107.42 33.1197C109.762 32.5339 112.123 31.9206 114.433 31.137C115.197 30.8778 115.982 30.6373 116.773 30.4116C117.116 30.3142 117.466 30.2171 117.821 30.12C117.979 30.4681 118.138 30.8166 118.296 31.1647C117.983 31.3706 117.67 31.568 117.357 31.7557C116.637 32.1871 115.89 32.5796 115.13 32.9169C112.837 33.9346 110.47 34.8694 108.012 35.4844Z" fill="black"/>
<path d="M109.43 27.9268C107.027 28.5263 104.563 28.8295 102.073 28.9141C101.257 28.9407 100.437 28.8922 99.6199 28.7692C99.3382 28.7261 99.0688 28.6775 98.7811 28.6127L98.4858 28.5424L98.3894 28.5046C98.2958 28.4591 98.2115 28.39 98.149 28.3032C98.066 28.1875 98.0271 28.0502 98.0423 27.9153C98.0575 27.7802 98.1265 27.655 98.2335 27.5606C98.3404 27.4665 98.4774 27.4118 98.6145 27.4032C98.9267 27.3701 99.2959 27.3241 99.6388 27.2771C100.402 27.1733 101.163 27.0602 101.927 26.9683C104.263 26.6844 106.549 26.1333 108.838 25.5622C111.18 24.9764 113.541 24.3631 115.851 23.5795C116.615 23.3202 117.4 23.0798 118.191 22.854C118.534 22.7566 118.884 22.6596 119.239 22.5624C119.397 22.9105 119.556 23.2591 119.714 23.6072C119.401 23.8131 119.088 24.0105 118.775 24.1981C118.055 24.6295 117.308 25.022 116.548 25.3594C114.255 26.3771 111.888 27.3119 109.43 27.9268Z" fill="black"/>
<path d="M42.3322 70.9661C43.9948 70.6891 45.6737 70.7889 47.2775 71.1633C47.6909 71.2617 48.1019 71.3777 48.5158 71.5129L48.9308 71.6545L49.0568 71.7131C49.1778 71.7826 49.2829 71.8838 49.3575 72.0061C49.4568 72.1693 49.494 72.357 49.4591 72.5364C49.4242 72.7157 49.3194 72.8755 49.1661 72.9895C49.0127 73.1034 48.8233 73.1613 48.6388 73.1555C48.0933 73.1382 47.575 73.1434 47.0704 73.1653C45.6014 73.2219 44.2282 73.4251 42.9093 73.7639C39.8386 74.5396 37.3264 76.5891 35.3195 79.1077C33.5922 81.2655 32.1422 83.7481 30.9835 86.4143C30.3304 87.9214 29.6807 89.4691 29.0724 91.0217C28.8762 91.5303 28.6828 92.0423 28.5158 92.5012C28.4573 92.6764 28.3379 92.8343 28.1779 92.9387C28.0176 93.043 27.8311 93.0855 27.6505 93.0559C27.4698 93.0263 27.3062 92.9258 27.1876 92.7756C27.0695 92.6256 27.0073 92.4377 27.0079 92.2532C27.0203 91.6788 27.0572 91.1355 27.1183 90.5569C27.2968 88.8073 27.6606 87.0513 28.2169 85.3655C29.2047 82.3906 30.5244 79.4579 32.5675 76.9006C34.9227 73.9193 38.4626 71.5731 42.3322 70.9661Z" fill="black"/>
<path d="M73.8411 100.059C77.0851 99.358 79.9466 102.079 80.8929 104.413C81.1905 105.048 81.4014 105.662 81.5638 106.304C81.6511 106.647 81.7141 106.966 81.765 107.299L81.8118 107.639L81.8157 107.777C81.8083 107.916 81.7669 108.055 81.6927 108.176C81.5937 108.338 81.4461 108.457 81.2728 108.508C81.0992 108.56 80.9101 108.541 80.7386 108.459C80.5674 108.376 80.4281 108.237 80.346 108.074C80.1529 107.688 79.9752 107.35 79.7796 106.981C79.5019 106.465 79.2258 105.985 78.9105 105.509C77.6969 103.666 76.0205 102.859 74.4134 103.206C72.0715 103.649 69.6772 105.993 67.9437 108.524C67.2072 109.599 66.505 110.694 65.807 111.843C65.5918 112.196 65.3777 112.552 65.1615 112.922C65.0674 113.082 64.9165 113.211 64.7366 113.279C64.5565 113.346 64.3629 113.347 64.1917 113.278C64.0207 113.208 63.8832 113.073 63.8011 112.899C63.7192 112.725 63.7009 112.527 63.7454 112.346C63.855 111.914 63.9718 111.496 64.1009 111.08C64.5236 109.727 65.062 108.426 65.7728 107.172C67.4965 104.264 69.6354 101.005 73.8411 100.059Z" fill="black"/>
<path d="M3.72379 118.941C-2.05011 110.15 4.44737 99.0659 16.1046 105.372L22.2199 118.941C19.3533 126.776 9.99977 128.496 3.72379 118.941Z" fill="#FFE6C8"/>
<path d="M71.6277 106.363C71.8082 106.369 71.9869 106.428 72.1296 106.525C72.1612 106.546 72.1929 106.568 72.2244 106.589C72.5167 106.789 72.8013 106.996 73.0085 107.262C73.2026 107.512 73.3199 107.821 73.4294 108.136L73.4675 108.245L73.5007 108.37C73.5255 108.5 73.5243 108.638 73.4949 108.77C73.4552 108.945 73.368 109.095 73.238 109.196C73.108 109.297 72.9414 109.344 72.7615 109.339C72.5821 109.334 72.4038 109.277 72.2605 109.184C72.2284 109.163 72.1958 109.142 72.1638 109.12C71.8853 108.937 71.6147 108.747 71.4206 108.497C71.2135 108.231 71.0836 107.904 70.9617 107.572C70.9486 107.536 70.9356 107.5 70.9226 107.464C70.8643 107.302 70.8499 107.113 70.8884 106.937C70.9273 106.76 71.0159 106.609 71.1472 106.507C71.2786 106.405 71.4467 106.357 71.6277 106.363Z" fill="black"/>
<path d="M82.8264 60.0723C86.1834 59.991 89.7881 60.6869 92.6848 62.8194C95.7875 65.0737 97.485 68.7779 97.9367 72.2578C97.9654 72.4634 97.9909 72.6669 98.0129 72.8711L98.0705 73.4903L98.0685 73.6299C98.0545 73.7701 98.0044 73.9083 97.9211 74.0264C97.81 74.1836 97.65 74.2923 97.4689 74.3311C97.2876 74.3698 97.0966 74.3357 96.9308 74.2373C96.7653 74.1389 96.6391 73.9842 96.5754 73.8086C96.4416 73.4404 96.302 73.0951 96.1516 72.7481C94.868 69.7688 92.903 67.4179 90.5578 65.7061C88.3651 64.084 85.6627 62.8574 82.7238 62.503C82.2089 62.4417 81.6923 62.3729 81.1613 62.3067C80.7992 62.2593 80.4113 62.2152 80.0441 62.1748C79.8668 62.1588 79.6875 62.0856 79.5461 61.9649C79.4049 61.8439 79.3127 61.6862 79.2873 61.5137C79.2619 61.3409 79.3047 61.1625 79.4055 61.0059C79.5062 60.8497 79.6563 60.7285 79.8215 60.6621C80.21 60.5106 80.6363 60.3867 81.0412 60.294C81.6352 60.1609 82.2302 60.0869 82.8264 60.0723Z" fill="black"/>
<path d="M76.4009 104.882C76.5576 104.908 76.6998 104.995 76.8101 105.126C76.9201 105.257 76.9891 105.421 77.0074 105.583C77.0117 105.623 77.0159 105.663 77.0201 105.703C77.0581 106.056 77.0872 106.41 77.0308 106.748C76.9726 107.097 76.8332 107.434 76.6861 107.768C76.67 107.805 76.6545 107.842 76.6382 107.879C76.57 108.032 76.451 108.17 76.3013 108.262C76.1512 108.353 75.9828 108.39 75.8209 108.363C75.659 108.336 75.5123 108.246 75.4 108.111C75.2879 107.976 75.2195 107.807 75.2047 107.639C75.2013 107.599 75.1982 107.56 75.1949 107.519C75.1642 107.156 75.1416 106.793 75.1998 106.443C75.2561 106.105 75.3987 105.78 75.5494 105.458C75.5664 105.421 75.583 105.385 75.6002 105.348L75.6617 105.241C75.7311 105.138 75.8245 105.046 75.9341 104.98C76.081 104.892 76.2442 104.856 76.4009 104.882Z" fill="black"/>
<path d="M4.00551 103.826C7.09833 101.589 11.1718 101.909 14.1979 103.161C15.0523 103.503 15.8508 103.902 16.65 104.363C16.9077 104.513 17.1 104.759 17.1832 105.048C17.2664 105.337 17.234 105.645 17.0924 105.906C16.9508 106.168 16.7106 106.364 16.4235 106.452C16.1363 106.541 15.8256 106.515 15.5592 106.381C14.821 106.012 14.099 105.708 13.3532 105.461C7.80068 103.21 2.35438 107.59 3.2184 113.129C3.82568 120.814 15.1866 128.493 20.0807 120.584C20.5049 119.955 20.8576 119.273 21.1432 118.547L21.1891 118.444C21.307 118.212 21.5009 118.024 21.7409 117.914C22.0152 117.789 22.3267 117.776 22.608 117.879C22.8895 117.982 23.119 118.193 23.2477 118.466C23.3763 118.739 23.3932 119.051 23.2965 119.334C22.9926 120.218 22.6016 121.071 22.1061 121.88C19.6315 126.411 12.9222 128.222 8.41957 125.511C3.96822 122.962 0.710682 118.692 0.072892 113.464C-0.327116 109.99 0.910301 106.015 4.00551 103.826Z" fill="black"/>
<path d="M4.00551 103.826C7.09833 101.589 11.1718 101.909 14.1979 103.161C15.0523 103.503 15.8508 103.902 16.65 104.363C16.9077 104.513 17.1 104.759 17.1832 105.048C17.2664 105.337 17.234 105.645 17.0924 105.906C16.9508 106.168 16.7106 106.364 16.4235 106.452C16.1363 106.541 15.8256 106.515 15.5592 106.381C14.821 106.012 14.099 105.708 13.3532 105.461C7.80068 103.21 2.35438 107.59 3.2184 113.129C3.82568 120.814 15.1866 128.493 20.0807 120.584C20.5049 119.955 20.8576 119.273 21.1432 118.547L21.1891 118.444C21.307 118.212 21.5009 118.024 21.7409 117.914C22.0152 117.789 22.3267 117.776 22.608 117.879C22.8895 117.982 23.119 118.193 23.2477 118.466C23.3763 118.739 23.3932 119.051 23.2965 119.334C22.9926 120.218 22.6016 121.071 22.1061 121.88C19.6315 126.411 12.9222 128.222 8.41957 125.511C3.96822 122.962 0.710682 118.692 0.072892 113.464C-0.327116 109.99 0.910301 106.015 4.00551 103.826Z" fill="black"/>
<path d="M10.2986 110.313C13.6839 109.535 16.9931 110.665 19.7137 112.349L20.3006 112.731L20.4031 112.808C20.6307 112.998 20.782 113.265 20.8299 113.562C20.8847 113.901 20.7992 114.253 20.5945 114.537C20.3899 114.821 20.083 115.014 19.744 115.069C19.4049 115.125 19.0602 115.04 18.7879 114.831C18.629 114.709 18.4725 114.593 18.3094 114.479C16.0884 112.913 13.28 112.001 10.7762 112.459C10.0357 112.601 9.32343 112.806 8.71174 113.187C8.56569 113.278 8.42567 113.38 8.29474 113.492C8.1588 113.618 7.9772 113.699 7.78595 113.713C7.59458 113.726 7.40947 113.672 7.26545 113.558C7.12158 113.443 7.02789 113.275 6.99787 113.086C6.96806 112.897 7.00532 112.702 7.09748 112.541C7.23358 112.318 7.39276 112.104 7.5672 111.908C8.29914 111.086 9.29389 110.559 10.2986 110.313Z" fill="black"/>
<path d="M92.492 97.1995C93.4209 95.1485 95.5449 93.7932 97.5682 93.9368L97.8963 93.9632L98.0574 93.9993C98.2154 94.0493 98.3617 94.1404 98.4773 94.265C98.6315 94.4314 98.7185 94.6431 98.7186 94.8616C98.7186 95.0802 98.6315 95.2919 98.4773 95.4583C98.3232 95.6244 98.1142 95.7308 97.8963 95.7601C97.8165 95.7725 97.7409 95.7859 97.6648 95.8011C96.3118 96.0415 95.2556 96.9696 95.0545 98.1058C95.0468 98.1609 95.0423 98.2156 95.0447 98.2572C95.0031 98.628 94.7928 98.9417 94.4725 99.1312C94.1525 99.3207 93.7454 99.3695 93.3543 99.2718C92.9631 99.174 92.6266 98.9393 92.4334 98.6214C92.24 98.3035 92.2019 97.9281 92.3396 97.5814C92.386 97.4469 92.4385 97.3171 92.492 97.1995Z" fill="black"/>
<path d="M97.6815 87.4104C99.9601 87.5841 101.994 88.7007 103.405 90.4319C106.282 93.9616 106.404 99.6984 101.95 105.189L99.576 103.262C103.339 98.624 102.792 94.519 101.035 92.3635C100.129 91.2524 98.8548 90.5664 97.4491 90.4592C96.0544 90.353 94.4123 90.8096 92.7714 92.2043L90.7909 89.8743C92.9719 88.0205 95.3916 87.236 97.6815 87.4104Z" fill="black"/>
<path d="M44.2244 105.61C50.8147 103.797 57.8303 103.736 64.4637 105.863C65.1439 106.091 65.848 106.361 66.5106 106.661C66.9294 106.851 67.2549 107.199 67.4159 107.63C67.5768 108.061 67.5601 108.539 67.369 108.958C67.1778 109.377 66.8281 109.703 66.3973 109.864C65.9666 110.025 65.4899 110.008 65.0721 109.817C64.5354 109.569 63.9425 109.338 63.3592 109.14C57.6074 107.253 51.0592 107.269 45.1307 108.875C39.9722 110.278 35.0681 112.768 31.1014 116.581C30.6217 117.042 30.1732 117.5 29.7215 117.994C29.5866 118.142 29.398 118.237 29.1951 118.257C28.9923 118.277 28.7923 118.219 28.6356 118.096C28.4788 117.972 28.3766 117.791 28.3485 117.589C28.3205 117.387 28.369 117.181 28.4813 117.016L28.7811 116.585C29.0818 116.159 29.389 115.747 29.7176 115.33C33.3081 110.725 38.4959 107.196 44.2244 105.61Z" fill="black"/>
<path d="M8.49052 87.0081C8.95141 86.8134 9.47073 86.8095 9.93486 86.9974C10.399 87.1853 10.77 87.5497 10.9661 88.0101C11.4301 89.1001 11.901 90.2106 12.3763 91.3333C16.2764 100.547 20.1609 109.786 24.1829 118.921C28.1405 127.604 32.4365 139.501 40.8733 137.855C42.0275 137.567 43.0983 137.099 43.9573 136.258C44.5142 135.713 44.9665 134.99 45.2142 134.127L45.3079 133.749L45.3538 133.576C45.4145 133.407 45.5173 133.249 45.6546 133.125C45.8377 132.96 46.0654 132.868 46.3001 132.867C46.535 132.867 46.7634 132.96 46.9466 133.125C47.1295 133.291 47.251 133.516 47.2933 133.749C47.5144 135.125 47.3233 136.684 46.6048 138.05C45.6553 139.897 43.8094 141.261 41.8353 141.738C35.4668 143.194 30.0926 138.84 27.1956 134.307C24.3785 129.683 22.6462 125.107 20.5755 120.504C16.5658 111.304 12.7242 102.035 8.87334 92.806C8.40423 91.682 7.94031 90.5712 7.48369 89.4827C7.29008 89.0213 7.28727 88.5013 7.47588 88.0374C7.66461 87.5734 8.02947 87.203 8.49052 87.0081Z" fill="black"/>
<path d="M43.4323 137.859C43.2377 138.019 42.523 138.607 44.4069 137.059C46.2687 136.476 45.7668 137.834 46.5114 138.164C51.2829 142.359 58.581 143.44 65.1774 142.4C71.4072 141.407 77.6689 138.565 81.1832 133.504C81.7849 132.63 82.37 131.741 82.8952 130.796C83.271 130.118 83.6148 129.419 83.9118 128.67L83.9489 128.586C84.043 128.393 84.1949 128.225 84.3854 128.113C84.6033 127.985 84.8521 127.939 85.0885 127.989C85.3251 128.039 85.5344 128.182 85.6823 128.387C85.8296 128.592 85.9022 128.842 85.8913 129.086C85.8386 129.996 85.7087 130.897 85.4811 131.79C85.1652 133.034 84.6571 134.249 83.9635 135.338C79.8872 141.642 72.8244 145.077 65.8043 146.264C58.3778 147.456 50.0212 146.506 43.8502 141.174C43.3362 140.391 41.6656 140.544 42.4586 138.66C44.3408 137.113 43.6273 137.699 43.4323 137.859Cnan nan nan nan 43.4323 137.859Z" fill="black"/>
<path d="M18.1476 36.577C12.6056 28.9329 26.7472 21.0977 28.8493 28.9329C24.4157 32.602 19.8675 35.5578 18.1476 36.577Z" fill="black"/>
<path d="M81.2218 99.7946C85.7432 97.2988 91.4911 96.5079 96.5831 98.6158C101.743 100.623 105.251 106.187 105.431 111.587C105.849 123.571 97.7839 136.438 85.1417 137.838C83.8699 137.971 82.5849 137.973 81.3116 137.842C80.8876 137.799 80.4963 137.589 80.2247 137.259C79.9534 136.93 79.8235 136.507 79.8634 136.083C79.9034 135.658 80.1101 135.266 80.4386 134.993C80.7671 134.719 81.1906 134.587 81.6153 134.624C82.6673 134.712 83.7253 134.691 84.7725 134.562C95.1539 133.318 102.125 122.026 101.758 111.792C101.784 102.651 90.6223 97.6656 82.2843 101.895C81.2878 102.353 80.3329 102.899 79.419 103.536C79.1958 103.692 78.9185 103.757 78.6466 103.716C78.3748 103.675 78.1307 103.532 77.9669 103.315C77.803 103.098 77.7324 102.823 77.7677 102.55C77.8031 102.278 77.9422 102.03 78.1534 101.858L78.5167 101.57C79.3704 100.909 80.271 100.316 81.2218 99.7946Z" fill="black"/>
<path d="M47.0644 113.046C47.3209 112.955 47.5956 112.96 47.8369 113.064C48.0781 113.168 48.2701 113.364 48.3799 113.613C48.4893 113.863 48.5065 114.144 48.4336 114.398C48.3813 114.569 48.3252 114.738 48.2656 114.904C47.7362 116.384 46.7642 117.791 45.4541 118.738C44.0902 119.728 42.4763 120.217 40.8545 120.342C40.671 120.355 40.5109 120.363 40.2802 120.366C40.0238 120.356 39.7694 120.256 39.5722 120.079C39.3749 119.903 39.2511 119.666 39.2275 119.411C39.204 119.157 39.2821 118.903 39.4433 118.693C39.6047 118.483 39.8364 118.337 40.0869 118.279C40.1518 118.252 40.3188 118.206 40.4414 118.161C41.6494 117.735 42.7561 117.073 43.7256 116.366C44.6618 115.685 45.5329 114.913 46.2295 113.898C46.3071 113.785 46.3837 113.668 46.458 113.546L46.5117 113.463C46.6467 113.275 46.8401 113.126 47.0644 113.046Z" fill="black"/>
<path d="M19.8499 99.6144C19.7815 99.8017 19.6498 99.9548 19.478 100.042C19.3062 100.129 19.1053 100.145 18.9139 100.09C18.7226 100.035 18.5572 99.9106 18.4495 99.7496C18.3857 99.6528 18.3231 99.5555 18.262 99.4575C17.7214 98.5915 17.2736 97.6659 16.9925 96.6973C16.7011 95.6887 16.5798 94.6443 16.5471 93.5952C16.543 93.4746 16.5411 93.3668 16.54 93.2368C16.5431 93.0427 16.6164 92.8493 16.7477 92.699C16.879 92.549 17.0567 92.4539 17.2488 92.4346C17.4409 92.4153 17.6345 92.4729 17.7931 92.5939C17.9516 92.715 18.0615 92.8903 18.1032 93.0799C18.1239 93.1568 18.1505 93.2674 18.1771 93.3685C18.4226 94.289 18.7305 95.2083 18.9933 96.1172C19.2474 96.9923 19.4606 97.8792 19.749 98.7463C19.7816 98.8443 19.8154 98.9418 19.8503 99.0394L19.8881 99.1798C19.9132 99.3232 19.901 99.4742 19.8499 99.6144Z" fill="black"/>
<path d="M44.4905 116.075C44.8889 115.995 45.2965 116.084 45.6195 116.33C45.7119 116.41 45.9444 116.564 46.1273 116.678C49.6631 118.85 54.2413 119.348 58.2327 117.834C58.4525 117.754 58.6751 117.666 58.8987 117.573L58.9778 117.543C59.166 117.484 59.3721 117.486 59.5618 117.553C59.7787 117.63 59.9559 117.785 60.0569 117.987C60.158 118.189 60.1755 118.423 60.1068 118.643C60.038 118.862 59.8882 119.047 59.6927 119.161C59.4566 119.297 59.2197 119.426 58.9827 119.545C54.6076 121.794 49.2011 121.393 44.723 119.29C44.462 119.165 44.2331 119.057 43.9241 118.875C43.5725 118.672 43.3329 118.33 43.2542 117.931C43.1756 117.532 43.265 117.107 43.4993 116.755C43.7339 116.403 44.0921 116.156 44.4905 116.075Z" fill="black"/>
<path d="M20.8838 36.8054C21.0797 36.8127 21.263 36.8915 21.3965 37.028C21.53 37.1646 21.6045 37.3496 21.6074 37.5456C21.6102 37.7414 21.5411 37.932 21.417 38.0778C21.0163 38.5476 20.6439 39.0059 20.2793 39.4782C17.2616 43.1965 16.2342 47.2586 17.1602 51.656C18.2486 57.3336 20.4488 63.2505 22.3467 69.1267L22.9258 70.8718L22.959 71.0124C22.9788 71.1558 22.9587 71.3046 22.8994 71.4401C22.8203 71.6209 22.6775 71.7635 22.4991 71.8376C22.3207 71.9116 22.1194 71.912 21.9356 71.8405C21.7517 71.769 21.6008 71.6307 21.5137 71.4577C21.2331 70.8972 20.9577 70.3489 20.6885 69.8122C17.964 64.2317 14.9774 58.7453 13.7119 52.2634C12.5099 47.1819 15.1138 41.2575 18.916 38.2097C19.3848 37.7868 19.8546 37.3885 20.3477 36.9841C20.4963 36.8634 20.6882 36.7982 20.8838 36.8054Z" fill="#656565"/>
<path d="M20.3135 89.1713C20.5048 89.1219 20.7086 89.1509 20.8819 89.2504C21.055 89.3499 21.1834 89.5123 21.2403 89.7016C21.3614 90.0962 21.509 90.5672 21.6426 90.9809C23.1247 95.5614 24.7791 100.095 26.6241 104.522C27.8992 107.569 29.2589 110.574 30.8574 113.427C30.9657 113.62 31.0762 113.814 31.1875 114.006L31.5244 114.58L31.583 114.69C31.7053 114.951 31.7319 115.249 31.6573 115.531C31.5719 115.853 31.3602 116.129 31.0703 116.297C30.7805 116.466 30.4363 116.513 30.1143 116.428C29.7921 116.343 29.5179 116.133 29.3535 115.843C29.1258 115.442 28.8989 115.031 28.6797 114.624C27.0644 111.626 25.673 108.544 24.4483 105.4C22.6776 100.834 21.233 96.1631 20.0723 91.4223C19.9683 90.9913 19.8541 90.5147 19.7598 90.0844C19.7179 89.8913 19.7514 89.6869 19.8545 89.516C19.9579 89.3451 20.1223 89.2207 20.3135 89.1713Z" fill="black"/>
<path d="M80.1698 74.379C82.9609 72.2392 86.356 71.4401 89.3905 72.0284C92.3583 72.6039 94.9534 74.5105 96.1786 77.6749L96.2929 77.9845L96.331 78.1163C96.4892 78.7756 96.1253 79.4607 95.4716 79.6896C94.8178 79.9182 94.1067 79.6093 93.8193 78.9952L93.7675 78.8692L93.6864 78.6485C92.8177 76.3991 91.0157 75.0693 88.8808 74.6554C86.6482 74.2226 84.0231 74.796 81.7978 76.5021C77.458 79.8292 74.3181 87.8561 80.2069 101.597C80.4978 102.276 80.1828 103.062 79.5038 103.353C78.8248 103.643 78.039 103.329 77.748 102.65C71.5974 88.2991 74.4768 78.7437 80.1698 74.379Z" fill="black"/>
<path d="M86.6214 73.8404C89.6261 73.8404 89.6534 76.6292 88.7941 80.8434C88.6411 81.5937 88.0758 82.1904 87.3405 82.4038L85.6765 82.8869C84.5367 83.2178 84.3603 84.7589 85.3958 85.3388L85.993 85.6732C86.8163 86.1342 87.229 87.0869 87.0158 88.006C86.1471 91.7498 85.5211 95.3245 85.857 98.6837C82.0351 100.06 79.296 101.614 78.9773 101.741C75.6649 92.9506 71.1804 75.5221 86.6214 73.8404Z" fill="black"/>
</svg>
