<svg fill="none" height="257" viewBox="0 0 256 257" width="256" xmlns="http://www.w3.org/2000/svg"><path d="m104.23 61.799c0-24.2976 21.238-26.0915 26.793-26.0915 5.554 0 40.515 2.9348 40.515 35.2235 0 32.452-27.12 37.181-49.5 37.181v9.948c16.827 0 52.768 5.544 52.768 43.865s-35.287 42.399-61.917 42.399v12.068h33.98c42.803 0 77.926-15.329 77.926-52.346 0-37.181-36.922-50.062-62.572-51.367 0 0 54.076-4.079 54.076-38.8102 0-36.2023-44.437-50.5528-93.121-50.5528-47.3765 0-71.3916 19.5686-71.3916 55.6087 0 28.2103.1662 178.0753.1662 178.0753h-51.9526v-257h256v257h-151.606s-.166-170.7356-.166-195.1977" fill="#000"/></svg>