<svg fill="none" height="24" viewBox="0 0 29 24" width="29" xmlns="http://www.w3.org/2000/svg" xmlns:xlink="http://www.w3.org/1999/xlink"><filter id="a" color-interpolation-filters="sRGB" filterUnits="userSpaceOnUse" height="29" width="29" x="0" y="-4"><feFlood flood-opacity="0" result="BackgroundImageFix"/><feBlend in="SourceGraphic" in2="BackgroundImageFix" mode="normal" result="shape"/><feColorMatrix in="SourceAlpha" result="hardAlpha" type="matrix" values="0 0 0 0 0 0 0 0 0 0 0 0 0 0 0 0 0 0 127 0"/><feOffset dy="-4"/><feGaussianBlur stdDeviation="2"/><feComposite in2="hardAlpha" k2="-1" k3="1" operator="arithmetic"/><feColorMatrix type="matrix" values="0 0 0 0 1 0 0 0 0 1 0 0 0 0 1 0 0 0 0.5 0"/><feBlend in2="shape" mode="overlay" result="effect1_innerShadow_2175_1855"/><feColorMatrix in="SourceAlpha" result="hardAlpha" type="matrix" values="0 0 0 0 0 0 0 0 0 0 0 0 0 0 0 0 0 0 127 0"/><feOffset dy="2"/><feGaussianBlur stdDeviation=".5"/><feComposite in2="hardAlpha" k2="-1" k3="1" operator="arithmetic"/><feColorMatrix type="matrix" values="0 0 0 0 1 0 0 0 0 1 0 0 0 0 1 0 0 0 0.45 0"/><feBlend in2="effect1_innerShadow_2175_1855" mode="overlay" result="effect2_innerShadow_2175_1855"/></filter><clipPath id="b"><path d="m0 0h29v24h-29z"/></clipPath><mask id="c" fill="#fff"><path d="m21 0c4.4182.00005644 8 3.58176 8 8v8c0 4.4182-3.5818 7.9999-8 8h-8c-1.8182 0-3.49434-.6071-4.83789-1.6289-1.28034 1.0179-2.89942 1.6288-4.66211 1.6289-1.19951 0-2.33267-.2831-3.337891-.7842-.2520623-.1257-.1956654-.4922.071289-.582 2.770512-.9321 4.766422-3.5491 4.766602-6.6338v-8c0-4.41828 3.58172-8 8-8z" fill="#fff"/></mask><g clip-path="url(#b)"><g filter="url(#a)"><path d="m21 0c4.4182.00005644 8 3.58176 8 8v8c0 4.4182-3.5818 7.9999-8 8h-8c-1.8182 0-3.49434-.6071-4.83789-1.6289-1.28034 1.0179-2.89942 1.6288-4.66211 1.6289-1.19951 0-2.33267-.2831-3.337891-.7842-.2520623-.1257-.1956654-.4922.071289-.582 2.770512-.9321 4.766422-3.5491 4.766602-6.6338v-8c0-4.41828 3.58172-8 8-8z" fill="#0d99ff"/></g><path d="m21 0v-1zm8 8h1zm-8 16v1zm-12.83789-1.6289.60534-.796-.61897-.4707-.60869.4839zm-4.66211 1.6289-.00003 1h.00007zm-3.337891-.7842-.446203.895h.000047zm.071289-.582.318852.9478h.000028zm4.766602-6.6338 1 .0001v-.0001zm16-16v1c3.866.00005 7 3.13405 7 7h1 1c0-4.97054-4.0295-8.999937-9-9zm8 8h-1v8h1 1v-8zm0 8h-1c0 3.8659-3.134 7-7 7v1 1c4.9705-.0001 9-4.0295 9-9zm-8 8v-1h-8v1 1h8zm-8 0v-1c-1.5918 0-3.05677-.5307-4.23255-1.4249l-.60534.796-.60534.796c1.51131 1.1493 3.39863 1.8329 5.44323 1.8329zm-4.83789-1.6289-.62232-.7828c-1.11086.8832-2.51248 1.4116-4.03983 1.4117l.00004 1 .00004 1c1.99802-.0001 3.83457-.6935 5.28439-1.8461zm-4.66211 1.6289.00003-1c-1.04051 0-2.02134-.2452-2.891765-.6791l-.446156.8949-.446156.895c1.140021.5683 2.425507.8892 3.784017.8892zm-3.337891-.7842.446204-.8949c.306425.1528.419237.476.385871.7239-.030839.2291-.187114.4511-.441934.5368l-.318852-.9478-.3188508-.9478c-.5217752.1755-.8397252.6257-.9024862 1.0919-.065291.4851.145357 1.0544.703845 1.3329zm.071289-.582.31888.9478c3.164822-1.0648 5.447522-4.0543 5.447722-7.5815l-1-.0001-1-.0001c-.00015 2.6421-1.70927 4.8866-4.0854808 5.6861zm4.766602-6.6338h1v-8h-1-1v8zm0-8h1c0-3.86599 3.13401-7 7-7v-1-1c-4.97056 0-9 4.02944-9 9zm8-8v1h8v-1-1h-8z" fill="#024aff" fill-opacity=".6" mask="url(#c)"/></g></svg>