<svg fill="none" height="24" viewBox="0 0 29 24" width="29" xmlns="http://www.w3.org/2000/svg" xmlns:xlink="http://www.w3.org/1999/xlink"><clipPath id="a"><path d="m0 0h29v24h-29z"/></clipPath><mask id="b" fill="#fff"><path d="m21 0c4.4182.00005644 8 3.58176 8 8v8c0 4.4182-3.5818 7.9999-8 8h-8c-1.8182 0-3.49434-.6071-4.83789-1.6289-1.2804 1.0182-2.89918 1.6289-4.66211 1.6289-1.19988 0-2.33348-.2836-3.338867-.7852-.2514822-.1259-.1945229-.4913.072265-.581 2.770552-.932 4.766482-3.5491 4.766602-6.6338v-8c0-4.41828 3.58172-8 8-8z" fill="#fff"/></mask><g clip-path="url(#a)"><path d="m21 0v-1zm8 8h1zm-8 16v1zm-12.83789-1.6289.60534-.796-.61903-.4708-.60871.4841zm-4.66211 1.6289v1h.00001zm-3.338867-.7852-.447829.8942.001413.0007zm.072265-.581.318797.9478h.00005zm4.766602-6.6338h1zm16-16v1c3.866.00005 7 3.13405 7 7h1 1c0-4.97054-4.0295-8.999937-9-9zm8 8h-1v8h1 1v-8zm0 8h-1c0 3.8659-3.134 7-7 7v1 1c4.9705-.0001 9-4.0295 9-9zm-8 8v-1h-8v1 1h8zm-8 0v-1c-1.5918 0-3.05677-.5307-4.23255-1.4249l-.60534.796-.60534.796c1.51131 1.1493 3.39863 1.8329 5.44323 1.8329zm-4.83789-1.6289-.6224-.7827c-1.11084.8833-2.5121 1.4116-4.03972 1.4116l.00001 1 .00001 1c1.99825 0 3.83454-.6932 5.2845-1.8462zm-4.66211 1.6289v-1c-1.04061 0-2.02178-.2456-2.892452-.68l-.446415.8948-.446416.8949c1.140112.5688 2.426123.8903 3.785283.8903zm-3.338867-.7852.447828-.8941c.305801.1532.418729.4766.38476.7253-.031365.2297-.188224.4504-.441526.5356l-.318797-.9478-.3187961-.9478c-.5200909.1749-.8388229.6231-.9024939 1.0894-.066268.4854.143913 1.0544.701197 1.3336zm.072265-.581.318847.9478c3.164885-1.0647 5.447625-4.0542 5.447755-7.5816h-1-1c-.0001 2.6421-1.70924 4.8866-4.0854481 5.686zm4.766602-6.6338h1v-8h-1-1v8zm0-8h1c0-3.86599 3.13401-7 7-7v-1-1c-4.97056 0-9 4.02944-9 9zm8-8v1h8v-1-1h-8z" fill="#000" fill-opacity=".1" mask="url(#b)"/></g></svg>