<svg fill="none" height="32" viewBox="0 0 32 32" width="32" xmlns="http://www.w3.org/2000/svg" xmlns:xlink="http://www.w3.org/1999/xlink"><filter id="a" color-interpolation-filters="sRGB" filterUnits="userSpaceOnUse" height="37" width="31.873" x=".126953" y="-4"><feFlood flood-opacity="0" result="BackgroundImageFix"/><feBlend in="SourceGraphic" in2="BackgroundImageFix" mode="normal" result="shape"/><feColorMatrix in="SourceAlpha" result="hardAlpha" type="matrix" values="0 0 0 0 0 0 0 0 0 0 0 0 0 0 0 0 0 0 127 0"/><feOffset dy="-4"/><feGaussianBlur stdDeviation="2"/><feComposite in2="hardAlpha" k2="-1" k3="1" operator="arithmetic"/><feColorMatrix type="matrix" values="0 0 0 0 1 0 0 0 0 1 0 0 0 0 1 0 0 0 0.7 0"/><feBlend in2="shape" mode="overlay" result="effect1_innerShadow_2175_1871"/><feColorMatrix in="SourceAlpha" result="hardAlpha" type="matrix" values="0 0 0 0 0 0 0 0 0 0 0 0 0 0 0 0 0 0 127 0"/><feOffset dy="2"/><feGaussianBlur stdDeviation=".5"/><feComposite in2="hardAlpha" k2="-1" k3="1" operator="arithmetic"/><feColorMatrix type="matrix" values="0 0 0 0 1 0 0 0 0 1 0 0 0 0 1 0 0 0 0.85 0"/><feBlend in2="effect1_innerShadow_2175_1871" mode="overlay" result="effect2_innerShadow_2175_1871"/></filter><clipPath id="b"><path d="m0 0h32v32h-32z"/></clipPath><mask id="c" fill="#fff"><path d="m24 0c4.4182.00011174 8 3.58179 8 8v16c0 4.4182-3.5818 7.9999-8 8h-9c-4.4183 0-8-3.5817-8-8v-9.5693c-.02243-3.9183-2.86192-7.16723-6.595703-7.82816-.271847-.04857-.3800419-.39205-.158203-.55664 1.329266-.98509 2.974376-1.56931 4.755856-1.56934.91558.00005 1.79494.15518 2.61426.43848 1.20754-2.88676 4.05889-4.91504 7.38379-4.91504z" fill="#fff"/></mask><g clip-path="url(#b)"><g filter="url(#a)"><path d="m24 0c4.4182.00011174 8 3.58179 8 8v16c0 4.4182-3.5818 7.9999-8 8h-9c-4.4183 0-8-3.5817-8-8v-9.5693c-.02243-3.9183-2.86192-7.16723-6.595703-7.82816-.271847-.04857-.3800419-.39205-.158203-.55664 1.329266-.98509 2.974376-1.56931 4.755856-1.56934.91558.00005 1.79494.15518 2.61426.43848 1.20754-2.88676 4.05889-4.91504 7.38379-4.91504z" fill="#b3fa75"/></g><path d="m24 0v-1zm0 32v1zm-17-17.5693h1.00002l-.00004-.0058zm-6.595703-7.82816-.175891.98441.001586.00028zm-.158203-.55664-.595402-.80343-.000458.00034zm4.755856-1.56934.00006-1h-.00007zm2.61426.43848-.32679.9451.88711.30673.36222-.86593zm16.38379-4.91504v1c3.8659.0001 7 3.1341 7 7h1 1c0-4.97052-4.0296-8.999874-9-9zm8 8h-1v16h1 1v-16zm0 16h-1c0 3.8659-3.1341 6.9999-7 7v1 1c4.9704-.0001 9-4.0295 9-9zm-8 8v-1h-9v1 1h9zm-9 0v-1c-3.866 0-7-3.134-7-7h-1-1c0 4.9706 4.0294 9 9 9zm-8-8h1v-9.5693h-1-1v9.5693zm0-9.5693.99998-.0058c-.02524-4.4095-3.22044-8.06343-7.421378-8.80705l-.174305.98469-.174305.98469c3.266628.57824 5.750408 3.42217 5.770028 6.84917zm-6.595703-7.82816.175891-.98441c.262946.04698.452462.24181.518762.4658.07106.2401.00927.5675-.256997.76506l-.595859-.80309-.59586-.80309c-.488102.36215-.606716.94358-.469057 1.40871.132895.44903.512436.83987 1.047229.93543zm-.158203-.55664.595402.80343c1.163444-.86221 2.601264-1.37274 4.160474-1.37277l-.00002-1-.00001-1c-2.00376.00003-3.85616.65793-5.351248 1.76591zm4.755856-1.56934-.00005 1c.80191.00005 1.57096.13581 2.28752.38358l.32679-.9451.32679-.9451c-.92208-.31883-1.91176-.49332-2.94099-.49338zm2.61426.43848.92254.3859c1.0574-2.52783 3.55355-4.30094 6.46125-4.30094v-1-1c-3.742 0-6.94865 2.28345-8.30633 5.52914zm7.38379-4.91504v1h9v-1-1h-9z" fill="#61b729" fill-opacity=".6" mask="url(#c)"/></g></svg>