<svg fill="none" height="720" viewBox="0 0 480 720" width="480" xmlns="http://www.w3.org/2000/svg"><path d="m0 600c0-66.274 53.726-120 120-120h120v120c0 66.274-53.726 120-120 120s-120-53.726-120-120" fill="#24cb71"/><path d="m240 0v240h120c66.274 0 120-53.726 120-120s-53.726-120-120-120z" fill="#ff7237"/><circle cx="359" cy="360" fill="#00b6ff" r="120"/><path d="m0 120c0 66.274 53.726 120 120 120h120v-240h-120c-66.274 0-120 53.726-120 120" fill="#ff3737"/><path d="m0 360c0 66.274 53.726 120 120 120h120v-240h-120c-66.274 0-120 53.726-120 120" fill="#874fff"/></svg>