<svg fill="none" height="64" viewBox="0 0 129 64" width="129" xmlns="http://www.w3.org/2000/svg"><path d="m34.1278 1.42188c.0006.34206.0946.95714.208 1.36621.1666.60045.1447.90557-.1152 1.58593-.2689.70404-.3031 1.27549-.207 3.46778.0632 1.44369.1655 4.4071.2285 6.585.1118 3.8751.1047 3.9766-.3232 4.7382l-.4375.7784.498.5263c.4885.5161.4951.557.3291 2.1533-.1039.9991-.0928 2.9191.0283 4.9737.1271 2.1562.1305 3.3664.0108 3.4072-.1022.0341-.3492.2091-.5489.3877-1.1163.9983-1.3323 2.2233-.5332 3.0225l.4786.4785v5.1435c0 2.8274-.0524 5.2777-.1163 5.4473-.174.4535-.645.3646-.6787-.1279-.0162-.2391-.0056-2.3915.0235-4.7852.0292-2.3942-.0054-4.354-.0762-4.3555-.0715.0005-.373.1264-.6709.2803-.692.358-1.4372 1.6345-1.7129 2.9356-.3313 1.5649-.2743 2.1016.2813 2.6572.3471.3473.4696.6365.4072.9639-.0551.2882.0114.5059.1738.5683.3637.1396.3396 1.53-.0449 2.5733-.1698.4607-.3646 1.3528-.4317 1.9824-.1106 1.0382-.1725 1.1614-.6669 1.3349-.4818.1689-.5886.1306-.9248-.331-.2092-.287-.4955-.5214-.6358-.5215-.1402-.0001-.2937-.1077-.3408-.2393-.0468-.131-.1371-.1912-.2012-.1337-.1778.1621-.5088 4.9767-.5127 7.456-.0034 2.2602-.1348 2.8151-.6211 2.6289-.3922-.1506-.5254-1.0223-.3945-2.584.0823-.981.0281-1.5848-.2012-2.2578-.1885-.5537-.3125-1.5367-.3125-2.4736 0-.855-.1075-1.7869-.2392-2.0703-.2859-.6151-.9062-.6818-1.2481-.1348-.149.2384-.4467.3828-.789.3828-.5237 0-.5747-.0794-1.0713-1.6748-.2866-.9211-.6753-2.0799-.8633-2.5742-.2782-.7308-.3064-1.0656-.1514-1.793.1406-.6594.1294-1.011-.0449-1.3369-.1301-.2433-.1932-.6723-.1396-.9531.1297-.6805-.4997-2.712-1.0079-3.2529-.3676-.3912-.4024-.6275-.3681-2.5118.0495-2.7172-.1121-4.4874-.4287-4.6894-.1388-.088-.5219-.1613-.8506-.1631l-.5987-.0029.0235 1.4179c.0224 1.3402-.1058 1.8659-.3877 1.584-.0687-.0688-.1072-.7437-.085-1.5.0324-1.1098-.0079-1.3371-.2099-1.1767-.1376.1094-.5627.2554-.9444.3242-.6318.1137-.7052.1935-.8164.8877-.0669.4195-.023 1.1549.0977 1.6347.1718.6829.1662.9719-.0254 1.3301-.2073.3873-.1933.5351.0849.96.367.5599.4536 1.3282.5723 5.0303.0475 1.4814.1717 2.6555.2969 2.8066.635.7656.3797 2.4991-.5274 3.5771-.4653.5531-.4967.7082-.4501 2.2442.0363 1.2071-.025 1.7516-.2286 2.0264-.2418.3262-.3211.3405-.5996.1093-.278-.2308-.3029-.517-.1875-2.1465.0828-1.1666.0691-1.7968-.04-1.872l-.044-.0147c-.1054-.0714-.2381-.666-.3046-1.3818-.0711-.7633-.2658-1.7585-.4327-2.2119-.4944-1.3441-.826-.7089-1.1748 2.251-.1915 1.6266-.3731 2.4977-.5205 2.498-.141.0002-.2563.4498-.3066 1.1963-.0444.658-.2205 1.4976-.3906 1.8662-.2259.4893-.3369 1.4968-.4131 3.7334-.0575 1.6842-.2353 3.6219-.3946 4.3066-.1592.6842-.2907 1.7652-.2929 2.4024-.0044 1.2475-.2116 1.6181-.90432 1.6181-.35847 0-.44043-.1036-.44043-.5585-.00006-.307-.08737-.5875-.19434-.6231-.11986-.0404-.07398-.3716.12109-.8682.306-.7792.30123-.8511-.18847-2.3916-.27756-.8736-.50448-1.9774-.50391-2.4521.00054-.6348-.09363-.9225-.35547-1.0859-.205-.1283-.40849-.5528-.48047-1.003-.0687-.429-.21174-.7809-.31738-.7812-.10548 0-.36263-.28-.57129-.6221-.30935-.5075-.37931-.9658-.37988-2.4883-.00039-1.0257-.07038-1.8648-.15527-1.8662-.08496 0-.24784-.2371-.36231-.5264-.17932-.4542-.2109-.3283-.22851.919-.02129 1.5134-.261 2.0693-.72461 1.6846-.19049-.1593-.25293-.9626-.25293-3.2481-.00001-2.4617-.0627-3.1841-.33204-3.8056-.18248-.4211-.39079-.7655-.46289-.7666-.07157 0-.13081.3993-.13086.8876 0 1.1692-.52965 1.7688-1.31933 1.4922-.52549-.1839-.53228-.2066-.65039-2.2881-.06547-1.1559-.13016-2.2914-.14356-2.5224-.01503-.2554-.23094-.519-.55078-.6719-.523004-.25-.527042-.2669-.655271-2.7383-.133978-2.5818-.04703-4.0471.262695-4.4365.113027-.1426.111302-.3564-.004883-.5742-.102219-.1911-.23921-.6808-.303711-1.0879-.064518-.4068-.167473-.8208-.228515-.9199-.2081978-.337.111035-1.0688.511719-1.1739.399016-.1043.399436-.12.342773-8.9189-.055689-8.643-.048709-8.8234.337893-9.3457.21696-.2929.73546-.7632 1.15136-1.04492.41546-.28162.86775-.72298 1.00586-.98047.15014-.28035.55045-.5582.99805-.69238.41084-.12308.88592-.4356 1.05567-.69434.21553-.32895.48428-.4707.89062-.4707.76787-.00042 2.93722-1.03585 3.2002-1.52735.12352-.23039.40139-.38757.68649-.38769.629-.00006 1.9349-.67342 2.2344-1.15235.1448-.23171.4461-.37889.7773-.3789.2974-.00002.6862-.0776.8643-.17285.1782-.09509.7255-.12758 1.2158-.07227l.8916.09961-.0927 1.55664c-.051.85594-.0746 1.85791-.0528 2.22656.0861 1.4522.0025 10.67401-.1045 11.53321-.1045.8355-.0804.9101.294.9102.2243 0 .656.1462.959.3251.5327.3148.5668.3109 1.0234-.1181.3601-.3382.6328-.4251 1.1533-.3643l.6817.0801.0263-3.3594c.0243-3.0821.1379-11.96609.1572-12.31149.0053-.0806.4173-.32952.917-.55274.5003-.22362 1.5562-.71549 2.3457-1.09277 1.4641-.69954 2.0593-.77988 3.7334-.50488.5588.09168 1.0414.01793 1.7784-.27247.5558-.21913 1.2877-.39983 1.6259-.40136.3383-.00177.7445-.08647.9024-.188479.1584-.10195.7825-.186755 1.3877-.188477l1.1006-.002929zm18.0645 9.94532c.0932-.0201.5986.1131 1.125.2969 1.1617.4055 2.3478 1.4959 2.2764 2.0927-.0303.254.0959.4949.3222.6162.2466.1323.4226.5082.5205 1.1143.2165 1.3425.2426 7.3821.0332 7.6602-.0985.1304-.1176.3887-.0429.5742.0744.187.1574 1.5947.1845 3.1289.0425 2.3915.0002 2.8844-.2978 3.4453-1.0649 2.0042-1.1198 2.182-1.124 3.6465-.0031 1.054-.0838 1.5251-.2891 1.6963-.3639.302-.4506.0826-.5273-1.3379-.055-1.0148-.066-1.0332-.293-.5137-.1313.3008-.2354 1.3334-.2354 2.334 0 1.6934-.1734 2.3098-.5009 1.7803-.0799-.1291-.1255-.8701-.1006-1.6465.0405-1.2733.0154-1.3864-.2598-1.1563-.979.8184-1.9167 2.1431-1.7305 2.4444.1552.2525-.201.9146-.7685 1.4277l-.4453.4033.3076 1.8555c.2526 1.5209.2639 1.9102.0615 2.1543-.3313.3992-.953.3769-1.083-.0381-.2326-.7436-.9252-2.1763-1.1377-2.3535-.3376-.2799-.7268.2896-.5849.8555.0647.258-.0103 1.0131-.167 1.6777-.1568.6646-.288 1.6826-.2911 2.2617-.003.5789-.0573 1.2471-.1211 1.4854-.1374.5125-.9114.7632-1.3173.4267-.3814-.3171-.3759-2.2048.0097-3.3408.3397-1.0003.2332-1.3185-.7099-2.1123-.4937-.4154-.6087-.645-.5742-1.1543.0618-.9188-.3138-1.0271-.9786-.2832-.5149.5764-.5557.7204-.4521 1.5947.0626.5287.2016 1.0503.3096 1.1582.108.1083.1972.3499.1972.5371 0 .2893-.0696.3088-.4599.1309-.5635-.2572-1.4556-2.2525-1.4551-3.2539.0004-.5267-.1133-.771-.4668-1.0029-.5688-.3728-1.6407-1.8857-1.9834-2.7998-.7926-2.1162-1.1775-3.353-1.2949-4.1622-.178-1.226-.3914-1.5808-.9502-1.581h-.4707l.0693-6.2695c.063-5.719.1054-6.4012.4844-7.7696.4152-1.4997 1.15-2.5633 1.9804-2.8652.184-.0672.3374-.2755.3409-.4629.0034-.1874.1225-.4943.2646-.6816.3992-.5261 2.6581-1.0562 5.0899-1.1944 1.2106-.0687 2.492-.2137 2.8466-.3222.5013-.1535.6804-.1394.8057.0634.1314.2124.2069.2003.4082-.0673.1888-.2513.6066-.3436 1.7783-.3916.842-.0347 1.6062-.0804 1.6973-.1016zm21.1641-2.24513c1.1212.02605 1.2927.08752 1.9492.69824.3954.36809.7714.92269.8349 1.23239.0637.3101.2506.9724.4151 1.4717.224.6807.2501 1.0492.1045 1.4668-.121.3479-.1302.8329-.0244 1.292.1916.8341.0484 3.7921-.212 4.373-.0945.2107-.1959.7509-.2246 1.2002-.0624.9707-.4097 1.1692-.4951.2832-.103-1.0677-.4189-.6791-.4189.5157-.0001 1.3524-.3213 1.7099-.5049.5625l-.1289-.8076-.5508.6543c-.3032.3597-.6855.7982-.8496.9746-.4098.4399-.1688 1.0839.4658 1.2431.2813.0707.6045.2221.7178.336.3203.3223.718 1.8294.7617 2.8867.0216.5253.0577.9986.0791 1.0527.1278.3126.2071 1.1327.3232 3.3252.1298 2.4506.1284 2.4624-.2763 2.334-.5701-.1809-.6998.4741-.5039 2.542.2765 2.9194.243 3.3719-.251 3.4424-.3112.0442-.4303-.0356-.4297-.2871.0015-.5817-.6361-2.1655-.8721-2.167-.2105.0001-.3008.6751-.6386 4.7851-.1127 1.3717-.1396 1.4365-.5967 1.4366-.475-.0001-.4775-.0122-.4453-1.628.0178-.8943.0563-1.9046.0859-2.2461.0398-.4584-.0805-.7599-.4629-1.1592-.3604-.3762-.5175-.743-.5176-1.2109-.0001-.3685-.126-.8373-.2802-1.042-.1545-.204-.2846-.5647-.2881-.8017-.0042-.2995-.1213-.4315-.3848-.4317-.2589 0-.4148-.1671-.4912-.5263-.0973-.4574-.3279-1.3005-1.0352-3.7803-.0899-.3158-.2185-.8937-.2851-1.2842-.0664-.39-.2462-.9499-.3994-1.2441-.1532-.2936-.2793-.6802-.2803-.8584-.0006-.1778-.0873-.377-.1924-.4424-.1152-.0712-.1914.182-.1914.6357-.0001.4139-.1176.85-.2607.9697-.1436.1191-.3184.6988-.3877 1.2881-.0822.6998-.2524 1.1813-.4912 1.3868-.466.4004-.8048 2.3791-.9522 5.5634-.0763 1.6495-.1836 2.4018-.3496 2.4571-.1773.058-.2392-.304-.2392-1.4024 0-1.4629-.0047-1.4775-.378-1.1396-.2079.1882-.563.7245-.789 1.1914-.3335.6891-.3853 1.0345-.2784 1.8408.1767 1.331.1449 2.1885-.0966 2.6396-.2412.4503-.5646.3137-.4346-.1836.0505-.1956-.1304-1.083-.4014-1.9716-.2831-.9284-.493-2.0816-.4931-2.708 0-.9627-.0452-1.0907-.3829-1.0909-.3723 0-.3828.1283-.3857 4.6416-.0029 4.3331-.1477 5.7576-.4932 4.8584-.0735-.1914-.0881-2.8562-.0332-5.9209.0975-5.4272.0887-5.5867-.2998-6.1123-.331-.4478-.424-.9558-.5468-2.9756-.129-2.1207-.4249-13.4594-.3858-14.7832.0259-.8706.0394-2.1932.0293-2.7763-.0287-1.6434.021-2.3991.1865-2.835.1633-.4291.265-.4704.9327-.3808.4327.0579.9409-.0017 1.2021-.1416.422-.2248 4.0282-.62875 7.8154-.87504.885-.05744 1.9625-.16999 2.3936-.25.4313-.08016 1.3376-.13288 2.0137-.11719zm18.8623-2.43066c1.0851.00249 1.1754.04093 1.8662.78125.5062.54282.7254.95244.7256 1.35351.0001.31641.1451.87738.3212 1.24703.2486.5214.2778.813.1319 1.2989-.1037.3442-.1255.9257-.0488 1.292.1705.8115-.0155 3.9958-.2413 4.1377-.0895.0553-.163.5337-.163 1.0625 0 .6868-.0683.938-.2393.8779-.1315-.0468-.2264-.3549-.2109-.6856.0154-.33-.0493-.5523-.1436-.4941-.0943.0587-.1718.4819-.1719.9404 0 .4585-.0516.9694-.1152 1.1358-.1907.4971-.4582.1396-.4609-.6162l-.003-.7071-.4287.543c-.2356.2984-.6194.7607-.8535 1.0273-.33.376-.3819.5661-.2324.8457.1062.1979.3158.3602.4658.3604.7331 0 1.4993 1.7063 1.5469 3.4453.013.4737.1169 2.0643.2304 3.5342.2024 2.6218.1615 3.274-.1728 2.7558-.5284-.8186-.6643 1.8909-.2383 4.7657.4261 2.8749.0108.8137-.3828.8134-.3934 0-.5045-.0943-.5078-.4306-.0025-.2372-.1798-.8172-.3936-1.2881-.3014-.6644-.4279-.7929-.5654-.5742-.0974.1551-.1299.4346-.0723.6201.0576.1857.0005.9847-.1269 1.7754-.1276.7908-1.3109 1.1553-1.1123.3652.1988-.7901.1787-.8971-.2871-1.5078-.3019-.3959-.5041-.9096-.5078-1.292-.0034-.3491-.1325-.8026-.2871-1.0068-.1544-.2045-.2812-.5605-.2813-.791-.0001-.2466-.1451-.4584-.3525-.5127-.3735-.0983-.6586-.967-1.3975-4.2588-.2129-.9475-.4985-1.982-.6348-2.2979-.1364-.3157-.2909-.7034-.3427-.8613-.0521-.1571-.1574.0329-.2344.4238-.0771.3911-.2612.8106-.4082.9326-.1607.1337-.2665.5889-.2666 1.1446 0 .6803-.0932.9883-.3545 1.1728-.4472.3155-.8186 2.6597-.8809 5.5645-.0243 1.1319-.1006 2.1153-.1699 2.1855-.2835.2835-.4115-.2365-.3721-1.5136l.042-1.3506-.4658.4375c-.7383.6935-1.1262 2.1069-.8857 3.2285.2126.9916-.0101 2.3232-.3887 2.3232-.1112-.0003-.1574-.1173-.1025-.2607.0548-.1445-.1057-.9849-.3575-1.8672-.2517-.8826-.4601-2.0998-.4629-2.7051-.004-.9712-.0498-1.1015-.3877-1.1015-.3717.0001-.3828.13-.3828 4.583 0 4.1707-.1411 5.5211-.456 4.3642-.0639-.2412-.0601-2.7786.0088-5.6435.1165-4.8533.1015-5.2428-.2188-5.5967-.2753-.3049-.3765-.9046-.5068-3.0156-.1311-2.1234-.4132-13.0747-.3662-14.2168.0067-.1593.0197-1.2601.0283-2.4463.0207-2.87905.1182-3.21887.9033-3.13869.335.03426.8888-.02803 1.2305-.1377.3417-.10949 1.6986-.29255 3.0146-.40722 1.316-.11447 3.4261-.29994 4.6895-.41211 1.2633-.11217 2.811-.20269 3.4385-.20117zm-65.7012 31.57319c-.3246.0625-.4306.2151-.4307.6202.0001.7113.4748 1.133.7256.6445.2686-.5235.4498-1.4024.2832-1.374-.0809.0143-.3411.0636-.5781.1093zm89.4475-32.48921c.397-.17058 7.379-.083 9.326.11719 1.043.10717 1.122.15434 1.675.98926.319.4817.581 1.05231.581 1.26757 0 .21579.138.75605.308 1.20118.224.58532.261.95891.133 1.34671-.097.295-.12.7946-.05 1.1103.163.7345-.005 3.5786-.224 3.8194-.092.1001-.167.5577-.167 1.0166 0 .9011-.361.9728-.413.082-.017-.2829-.081-.1031-.144.3994-.125 1.0098-.463 1.2961-.557.4736-.054-.4664-.418-.7812-.418-.3613-.001.0914-.223.3886-.495.6602-.511.5111-.511 1.2802-.001 1.2802.641.0006 1.253 1.473 1.353 3.2549.027.4747.117 2.0678.201 3.541.14 2.4583.127 2.6584-.158 2.4239-.269-.2222-.326-.1923-.432.2285-.067.267-.022 1.4072.099 2.5332.155 1.4385.16 2.1072.018 2.25-.284.2842-.457.0256-.846-1.2617-.183-.6045-.406-1.0992-.495-1.1006-.09.0003-.224 1.0984-.3 2.4404-.152 2.6956-.317 3.2884-.802 2.8867-.25-.2075-.28-.5507-.181-2.0703.106-1.6089.076-1.8957-.26-2.4482-.21-.3442-.381-.8293-.381-1.0772 0-.2478-.131-.7623-.29-1.1435-.16-.3814-.229-.6934-.154-.6934.072-.0006-.027-.1175-.221-.2598-.374-.2732-1.426-4.0912-1.436-5.206-.002-.3205-.084-.6649-.181-.7656-.097-.0999-.261-.4834-.366-.8516l-.189-.6699-.018.5986c-.009.329-.146.7057-.303.8369-.173.143-.288.5612-.288 1.0459 0 .5471-.116.9139-.359 1.1338-.451.408-.717 2.4756-.773 6.0039-.009.5518-.103 1.0038-.208 1.0049-.11-.001-.192-.5829-.192-1.3633 0-1.2126-.032-1.3361-.298-1.1162-.585.4858-.854 1.5251-.809 3.1279.026.935-.048 1.7046-.185 1.9356-.206.3463-.229.3189-.238-.2871-.006-.3687-.18-1.3108-.389-2.0928-.208-.7823-.377-1.7944-.378-2.249 0-.616-.075-.8259-.294-.8262-.255.0003-.293.4703-.28 3.4932.022 4.9894.023 4.9659-.194 4.832-.123-.079-.19-1.9463-.183-5.1348.009-3.9504-.046-5.1568-.263-5.6826-.178-.4297-.323-1.7904-.408-3.8252-.176-4.2298-.259-13.29917-.14-15.28318l.095-1.5957.594.09863c.327.05369.767.02272.978-.06836zm-9.914.71289c.469-.4692 2.603-.4518 3.547.0293.861.43895 1.676 1.37579 1.676 1.92578 0 .22457.121.45472.268.51172.275.10548.525 2.02352.521 4.00102-.012 6.9572-.138 10.2678-.395 10.4267-.409.2533-.771 1.6637-.775 3.0215-.002.9337-.065 1.1959-.289 1.1963-.22-.0001-.288-.2465-.288-1.0645 0-.6603-.072-1.0188-.191-.9453-.107.0689-.191.9571-.191 2.0098-.001 2.6036-.487 2.8312-.621.29-.045-.8748-.073-.9252-.337-.6123-.158.1879-.442.4981-.632.6905-.291.2943-.421.7083-.502 1.5937-.008.0791-.198.3287-.423.5537-.395.3948-.402.4683-.172 2.0117.265 1.781.199 2.1728-.366 2.1729-.262-.0001-.426-.1686-.512-.5264-.204-.8503-.856-2.0216-1.024-1.8418-.199 3.2669-1.569 3.0249-1.621 2.3682-.053-.6568.025-.7593-.499-1.292-.445-.4535-.586-.7476-.521-1.0879.049-.2565.015-.5803-.075-.7188-.126-.1929-.253-.1398-.546.2276-.58.7261-.65 1.2712-.287 2.2207.372.975.26 1.2903-.263.7353-.479-.5093-.979-1.8688-.979-2.664 0-.3608-.113-.7252-.252-.8096-.3673-.2226-1.4705-1.8951-1.471-2.2295-.0003-.1569-.1667-.6736-.3702-1.1484-.2038-.4753-.5171-1.6027-.6962-2.5049-.2693-1.3554-.3881-1.6395-.6827-1.6397-.3164 0-.3579-.1677-.3642-1.4843-.0404-8.3756.018-9.9945.3887-10.8633.0897-.2104.2103-.5981.2685-.8613.058-.26315.4093-.81747.7803-1.23148.3711-.41363.6754-.85276.6758-.97559.0001-.6971 1.582-1.19883 4.211-1.33593.895-.04651 1.864-.14044 2.154-.20801.372-.08658.526-.04794.527.13183 0 .18311.092.1629.328-.07324zm-58.7278 12.68942c-.3164 0-.3702.1388-.3702.9571 0 .7226-.0705.9567-.2871.957-.3121 0-.3409-.1178-.291-1.1963.0187-.4048-.0566-.7169-.1728-.7178-.1134 0-.2173.1937-.2315.4307-.0143.2373-.0057 1.6435.0195 3.125.0372 2.1782.0058 2.6794-.2304 2.9658l-.0996.1094c-.2355.2872-.2732.8081-.2549 2.9941.0222 2.6607.0337 2.7325.5088 3.1534.63.5581.9957.5444 1.2656-.0479.1198-.2632.3273-.4784.4609-.4785.1909-.0019.2436-1.2406.2442-5.791.0002-3.1836-.0429-5.9396-.0957-6.126-.0526-.1842-.2625-.3348-.4658-.335zm26.5078 11.295c-.1479.0002-.2686.1723-.2686.3828.0001.2103.0762.3828.169.3828.0929-.0007.2144-.1728.2695-.3828.065-.2487.0048-.3827-.1699-.3828zm-21.0879-.2872c.1072-.5604.1229-.5496-.3272-.2207-.1938.1421-.2915.3574-.2168.4786.222.3588.4461.2529.544-.2579zm-41.2354-2.9316c-.279-.0322-.5471.011-.5957.0957-.048.085-.1426.3858-.2099.668-.0988.4136-.0437.539.2822.6426.4867.1544.8799-.1976.9687-.8682.0524-.3951-.0254-.4897-.4453-.5381zm81.2666.251c.1117-.2914-.092-.3922-.3242-.1602-.183.1828-.1575.4472.043.4473.0939 0 .2205-.1294.2812-.2871zm32.9737-2.7237c-.064-.0635-.109.0494-.101.251.01.2225.055.2683.116.1162.055-.1378.048-.3032-.015-.3672zm-83.0059-.7109c0-.6992-.0354-.7741-.2559-.5537-.1961.1961-.1512.9839.0635 1.1172.1137.0697.1924-.1586.1924-.5635zm62.2749-11.1582c-.148-.0489-.249.2168-.288.75-.078 1.0818-.416 1.0591-.541-.0361-.054-.4815-.15-.7347-.216-.5742-.066.1589-.073 1.3386-.017 2.622.083 1.906.048 2.4182-.193 2.7862-.221.3361-.303 1.0392-.324 2.7656-.027 2.2962-.023 2.3196.485 2.7187l.511.4024.441-.4766c.44-.4749.441-.4885.405-5.6787-.027-3.8211-.096-5.2217-.263-5.2793zm-36.3208 3.3945c-.1925.0001-.2995.2514-.3398.7989-.0842 1.1414-.5371 1.2073-.5372.0781 0-.6359-.0765-.8767-.2763-.877-.1517.0002-.3263.0828-.3887.1836-.0624.1017-.192.7258-.2871 1.3877-.0954.6625-.3493 1.9794-.5645 2.9268-.4705 2.0714-.4908 2.6555-.1054 3.041.3915.3914.7633.2172 1.2646-.5937.2288-.3704.7558-1.0653 1.1709-1.545.4152-.4796.9345-1.2429 1.1543-1.6953.3452-.7106.3656-.8857.1504-1.2881-.1372-.2562-.1966-.5508-.1328-.6543.0639-.1033-.0124-.2946-.1689-.4248-.2471-.2051-.2852-.0805-.2852.9356 0 .9559-.0576 1.1714-.3125 1.1719-.276 0-.2989-.2042-.1875-1.7227.1058-1.4433.0808-1.7224-.1543-1.7227zm40.2798 6.3555c0-.4623-.098-.5333-.296-.2129-.071.1145-.033.3039.084.4209.156.1562.212.1006.212-.208zm-80.8609-3.1016c-.0273 0-.1381.2873-.246.6387-.1547.5038-.13.7681.1152 1.2422.2968.5739.322.5847.5469.2246.1297-.2075.2353-.4955.2353-.6387-.001-.2452-.5425-1.4649-.6514-1.4668zm59.9952-4.3652c-.0001-1.6294-.1765-2.1913-.458-1.458-.0639.1667-.1162.5544-.1163.8613 0 .3072-.0861.5586-.1914.5586-.1051-.0007-.1913-.3451-.1914-.7656 0-.5266-.083-.7656-.2666-.7656-.3401.0002-.499.4194-.499 1.3174 0 .3912-.076.7934-.1689.8935-.2013.2166-.7885 3.3688-.7881 4.2295.0005.5083.261.8337.6689.834.0351 0 .3899-.4532.7881-1.0059.3984-.5526.9664-1.2877 1.2617-1.6338.6795-.7965 1.1636-1.9416.9844-2.3281-.0757-.1636-.1429-.4619-.1494-.6631-.0066-.201-.1029-.3964-.2129-.4336-.118-.0386-.2104.2978-.2256.8213-.014.489-.1177.9818-.2305 1.0948-.1453.1449-.205-.3058-.205-1.5567zm-46.6465 4.251c-.1082-.2821-.4835-.3572-.7002-.1406-.2049.2051-.1471.795.0928.9433.2785.171.7446-.4445.6074-.8027zm23.292-1.6289c0-.3637-.208-.4729-.4463-.2344-.2596.2598-.1336.8188.1592.707.1577-.0607.2869-.2735.2871-.4726zm56.2822-5.4463c0-.6235-.162-.8161-.447-.5313-.07.0705-.128.4104-.128.7559 0 .3459-.13 1.129-.289 1.7393-.16.6106-.344 1.6893-.41 2.3974-.106 1.1328-.079 1.3044.227 1.4219.248.095.435.0003.65-.3291.165-.2543.579-.7732.919-1.1533.852-.9517 1.419-2.2535 1.178-2.7051-.09-.1681-.134-.3609-.109-.4609l.029-.0723c.025-.0936-.014-.257-.099-.3906-.123-.1951-.176-.0401-.178.5195-.004.9659-.186 1.5356-.387 1.2119-.076-.1232-.099-.8634-.05-1.6435.06-.9584.02-1.4182-.122-1.419-.115.0005-.21.2086-.21.4629 0 .6261-.195 1.0885-.403.9609-.094-.0581-.171-.4025-.171-.7646zm-19.603 4.499c.025-.6654-.042-.7149-.217-.1621-.07.2211-.055.4757.035.5645.089.0883.171-.0927.182-.4024zm-38.0533-1.1699c-.0895-.6093-.4738-.6399-.622-.0498-.1496.5957-.0522.7483.374.585.1845-.0709.2846-.2863.248-.5352zm20.7862-1.1172c-.1477.0004-.2684.1726-.2686.3828.0001.2104.0762.3826.169.3828.093-.0002.2144-.1724.2695-.3828.065-.2486.005-.3828-.1699-.3828zm16.2411-1.6748c-.152-.4142-.4296-.2598-.4296.2393 0 .2629.0796.4782.1756.4785.224-.0004.368-.4074.254-.7178zm-17.5497-.4316c-.1951.0002-.2997.1739-.2998.4951.0001.5995.4487.5336.539-.0791.0405-.276-.0398-.416-.2392-.416zm35.8317.0634c-.079-.334-.09-.3336-.232-.0058-.082.1885-.095.3962-.029.4619.194.1935.351-.0792.261-.4561zm-1.243-2.3115c-.151-.0505-.239.1073-.239.4307 0 .323.088.4811.239.4306.132-.0439.239-.2379.239-.4306s-.107-.3865-.239-.4307z" fill="#ff504a"/></svg>