<svg width="129" height="64" viewBox="0 0 129 64" fill="none" xmlns="http://www.w3.org/2000/svg">
<path d="M34.1278 1.42188C34.1284 1.76394 34.2224 2.37902 34.3358 2.78809C34.5024 3.38854 34.4805 3.69366 34.2206 4.37402C33.9517 5.07806 33.9175 5.64951 34.0136 7.8418C34.0768 9.28549 34.1791 12.2489 34.2421 14.4268C34.3539 18.3019 34.3468 18.4034 33.9189 19.165L33.4814 19.9434L33.9794 20.4697C34.4679 20.9858 34.4745 21.0267 34.3085 22.623C34.2046 23.6221 34.2157 25.5421 34.3368 27.5967C34.4639 29.7529 34.4673 30.9631 34.3476 31.0039C34.2454 31.038 33.9984 31.213 33.7987 31.3916C32.6824 32.3899 32.4664 33.6149 33.2655 34.4141L33.7441 34.8926V40.0361C33.7441 42.8635 33.6917 45.3138 33.6278 45.4834C33.4538 45.9369 32.9828 45.848 32.9491 45.3555C32.9329 45.1164 32.9435 42.964 32.9726 40.5703C33.0018 38.1761 32.9672 36.2163 32.8964 36.2148C32.8249 36.2153 32.5234 36.3412 32.2255 36.4951C31.5335 36.8531 30.7883 38.1296 30.5126 39.4307C30.1813 40.9956 30.2383 41.5323 30.7939 42.0879C31.141 42.4352 31.2635 42.7244 31.2011 43.0518C31.146 43.34 31.2125 43.5577 31.3749 43.6201C31.7386 43.7597 31.7145 45.1501 31.33 46.1934C31.1602 46.6541 30.9654 47.5462 30.8983 48.1758C30.7877 49.214 30.7258 49.3372 30.2314 49.5107C29.7496 49.6796 29.6428 49.6413 29.3066 49.1797C29.0974 48.8927 28.8111 48.6583 28.6708 48.6582C28.5306 48.6581 28.3771 48.5505 28.33 48.4189C28.2832 48.2879 28.1929 48.2277 28.1288 48.2852C27.951 48.4473 27.62 53.2619 27.6161 55.7412C27.6127 58.0014 27.4813 58.5563 26.995 58.3701C26.6028 58.2195 26.4696 57.3478 26.6005 55.7861C26.6828 54.8051 26.6286 54.2013 26.3993 53.5283C26.2108 52.9746 26.0868 51.9916 26.0868 51.0547C26.0868 50.1997 25.9793 49.2678 25.8476 48.9844C25.5617 48.3693 24.9414 48.3026 24.5995 48.8496C24.4505 49.088 24.1528 49.2324 23.8105 49.2324C23.2868 49.2324 23.2358 49.153 22.7392 47.5576C22.4526 46.6365 22.0639 45.4777 21.8759 44.9834C21.5977 44.2526 21.5695 43.9178 21.7245 43.1904C21.8651 42.531 21.8539 42.1794 21.6796 41.8535C21.5495 41.6102 21.4864 41.1812 21.54 40.9004C21.6697 40.2199 21.0403 38.1884 20.5321 37.6475C20.1645 37.2563 20.1297 37.02 20.164 35.1357C20.2135 32.4185 20.0519 30.6483 19.7353 30.4463C19.5965 30.3583 19.2134 30.285 18.8847 30.2832L18.286 30.2803L18.3095 31.6982C18.3319 33.0384 18.2037 33.5641 17.9218 33.2822C17.8531 33.2134 17.8146 32.5385 17.8368 31.7822C17.8692 30.6724 17.8289 30.4451 17.6269 30.6055C17.4893 30.7149 17.0642 30.8609 16.6825 30.9297C16.0507 31.0434 15.9773 31.1232 15.8661 31.8174C15.7992 32.2369 15.8431 32.9723 15.9638 33.4521C16.1356 34.135 16.13 34.424 15.9384 34.7822C15.7311 35.1695 15.7451 35.3173 16.0233 35.7422C16.3903 36.3021 16.4769 37.0704 16.5956 40.7725C16.6431 42.2539 16.7673 43.428 16.8925 43.5791C17.5275 44.3447 17.2722 46.0782 16.3651 47.1562C15.8998 47.7093 15.8684 47.8644 15.915 49.4004C15.9513 50.6075 15.89 51.152 15.6864 51.4268C15.4446 51.753 15.3653 51.7673 15.0868 51.5361C14.8088 51.3053 14.7839 51.0191 14.8993 49.3896C14.9821 48.223 14.9684 47.5928 14.8593 47.5176L14.8153 47.5029C14.7099 47.4315 14.5772 46.8369 14.5107 46.1211C14.4396 45.3578 14.2449 44.3626 14.078 43.9092C13.5836 42.5651 13.252 43.2003 12.9032 46.1602C12.7117 47.7868 12.5301 48.6579 12.3827 48.6582C12.2417 48.6584 12.1264 49.108 12.0761 49.8545C12.0317 50.5125 11.8556 51.3521 11.6855 51.7207C11.4596 52.21 11.3486 53.2175 11.2724 55.4541C11.2149 57.1383 11.0371 59.076 10.8778 59.7607C10.7186 60.4449 10.5871 61.5259 10.5849 62.1631C10.5805 63.4106 10.3733 63.7812 9.68058 63.7812C9.32211 63.7812 9.24015 63.6776 9.24015 63.2227C9.24009 62.9157 9.15278 62.6352 9.04581 62.5996C8.92595 62.5592 8.97183 62.228 9.1669 61.7314C9.4729 60.9522 9.46813 60.8803 8.97843 59.3398C8.70087 58.4662 8.47395 57.3624 8.47452 56.8877C8.47506 56.2529 8.38089 55.9652 8.11905 55.8018C7.91405 55.6735 7.71056 55.249 7.63858 54.7988C7.56988 54.3698 7.42684 54.0179 7.3212 54.0176C7.21572 54.0176 6.95857 53.7376 6.74991 53.3955C6.44056 52.888 6.3706 52.4297 6.37003 50.9072C6.36964 49.8815 6.29965 49.0424 6.21476 49.041C6.1298 49.041 5.96692 48.8039 5.85245 48.5146C5.67313 48.0604 5.64155 48.1863 5.62394 49.4336C5.60265 50.947 5.36294 51.5029 4.89933 51.1182C4.70884 50.9589 4.6464 50.1556 4.6464 47.8701C4.64639 45.4084 4.5837 44.686 4.31436 44.0645C4.13188 43.6434 3.92357 43.299 3.85147 43.2979C3.7799 43.2979 3.72066 43.6972 3.72061 44.1855C3.72061 45.3547 3.19096 45.9543 2.40128 45.6777C1.87579 45.4938 1.869 45.4711 1.75089 43.3896C1.68542 42.2337 1.62073 41.0982 1.60733 40.8672C1.5923 40.6118 1.37639 40.3482 1.05655 40.1953C0.533546 39.9453 0.529508 39.9284 0.401279 37.457C0.267301 34.8752 0.354249 33.4099 0.663974 33.0205C0.777001 32.8779 0.775276 32.6641 0.659091 32.4463C0.556872 32.2552 0.419881 31.7655 0.35538 31.3584C0.290862 30.9516 0.187907 30.5376 0.126865 30.4385C-0.0813328 30.1015 0.2379 29.3697 0.638584 29.2646C1.0376 29.1603 1.03802 29.1446 0.981357 20.3457C0.925668 11.7027 0.932648 11.5223 1.31925 11C1.53621 10.7071 2.05471 10.2368 2.47061 9.95508C2.88607 9.67346 3.33836 9.2321 3.47647 8.97461C3.62661 8.69426 4.02692 8.41641 4.47452 8.28223C4.88536 8.15915 5.36044 7.84663 5.53019 7.58789C5.74572 7.25894 6.01447 7.11719 6.42081 7.11719C7.18868 7.11677 9.35803 6.08134 9.62101 5.58984C9.74453 5.35945 10.0224 5.20227 10.3075 5.20215C10.9365 5.20209 12.2424 4.52873 12.5419 4.0498C12.6867 3.81809 12.988 3.67091 13.3192 3.6709C13.6166 3.67088 14.0054 3.5933 14.1835 3.49805C14.3617 3.40296 14.909 3.37047 15.3993 3.42578L16.2909 3.52539L16.1982 5.08203C16.1472 5.93797 16.1236 6.93994 16.1454 7.30859C16.2315 8.76079 16.1479 17.9826 16.0409 18.8418C15.9364 19.6773 15.9605 19.7519 16.3349 19.752C16.5592 19.752 16.9909 19.8982 17.2939 20.0771C17.8266 20.3919 17.8607 20.388 18.3173 19.959C18.6774 19.6208 18.9501 19.5339 19.4706 19.5947L20.1523 19.6748L20.1786 16.3154C20.2029 13.2333 20.3165 4.34931 20.3358 4.00391C20.3411 3.92331 20.7531 3.67439 21.2528 3.45117C21.7531 3.22755 22.809 2.73568 23.5985 2.3584C25.0626 1.65886 25.6578 1.57852 27.3319 1.85352C27.8907 1.9452 28.3733 1.87145 29.1103 1.58105C29.6661 1.36192 30.398 1.18122 30.7362 1.17969C31.0745 1.17792 31.4807 1.09322 31.6386 0.991211C31.797 0.889261 32.4211 0.804456 33.0263 0.802734L34.1269 0.799805L34.1278 1.42188ZM52.1923 11.3672C52.2855 11.3471 52.7909 11.4803 53.3173 11.6641C54.479 12.0696 55.6651 13.16 55.5937 13.7568C55.5634 14.0108 55.6896 14.2517 55.9159 14.373C56.1625 14.5053 56.3385 14.8812 56.4364 15.4873C56.6529 16.8298 56.679 22.8694 56.4696 23.1475C56.3711 23.2779 56.352 23.5362 56.4267 23.7217C56.5011 23.9087 56.5841 25.3164 56.6112 26.8506C56.6537 29.2421 56.6114 29.735 56.3134 30.2959C55.2485 32.3001 55.1936 32.4779 55.1894 33.9424C55.1863 34.9964 55.1056 35.4675 54.9003 35.6387C54.5364 35.9407 54.4497 35.7213 54.373 34.3008C54.318 33.286 54.307 33.2676 54.08 33.7871C53.9487 34.0879 53.8446 35.1205 53.8446 36.1211C53.8446 37.8145 53.6712 38.4309 53.3437 37.9014C53.2638 37.7723 53.2182 37.0313 53.2431 36.2549C53.2836 34.9816 53.2585 34.8685 52.9833 35.0986C52.0043 35.917 51.0666 37.2417 51.2528 37.543C51.408 37.7955 51.0518 38.4576 50.4843 38.9707L50.039 39.374L50.3466 41.2295C50.5992 42.7504 50.6105 43.1397 50.4081 43.3838C50.0768 43.783 49.4551 43.7607 49.3251 43.3457C49.0925 42.6021 48.3999 41.1694 48.1874 40.9922C47.8498 40.7123 47.4606 41.2818 47.6025 41.8477C47.6672 42.1057 47.5922 42.8608 47.4355 43.5254C47.2787 44.19 47.1475 45.208 47.1444 45.7871C47.1414 46.366 47.0871 47.0342 47.0233 47.2725C46.8859 47.785 46.1119 48.0357 45.706 47.6992C45.3246 47.3821 45.3301 45.4944 45.7157 44.3584C46.0554 43.3581 45.9489 43.0399 45.0058 42.2461C44.5121 41.8307 44.3971 41.6011 44.4316 41.0918C44.4934 40.173 44.1178 40.0647 43.453 40.8086C42.9381 41.385 42.8973 41.529 43.0009 42.4033C43.0635 42.932 43.2025 43.4536 43.3105 43.5615C43.4185 43.6698 43.5077 43.9114 43.5077 44.0986C43.5077 44.3879 43.4381 44.4074 43.0478 44.2295C42.4843 43.9723 41.5922 41.977 41.5927 40.9756C41.5931 40.4489 41.4794 40.2046 41.1259 39.9727C40.5571 39.5999 39.4852 38.087 39.1425 37.1729C38.3499 35.0567 37.965 33.8199 37.8476 33.0107C37.6696 31.7847 37.4562 31.4299 36.8974 31.4297H36.4267L36.496 25.1602C36.559 19.4412 36.6014 18.759 36.9804 17.3906C37.3956 15.8909 38.1304 14.8273 38.9608 14.5254C39.1448 14.4582 39.2982 14.2499 39.3017 14.0625C39.3051 13.8751 39.4242 13.5682 39.5663 13.3809C39.9655 12.8548 42.2244 12.3247 44.6562 12.1865C45.8668 12.1178 47.1482 11.9728 47.5028 11.8643C48.0041 11.7108 48.1832 11.7249 48.3085 11.9277C48.4399 12.1401 48.5154 12.128 48.7167 11.8604C48.9055 11.6091 49.3233 11.5168 50.495 11.4688C51.337 11.4341 52.1012 11.3884 52.1923 11.3672ZM73.3564 9.12207C74.4776 9.14812 74.6491 9.20959 75.3056 9.82031C75.701 10.1884 76.077 10.743 76.1405 11.0527C76.2042 11.3628 76.3911 12.0251 76.5556 12.5244C76.7796 13.2051 76.8057 13.5736 76.6601 13.9912C76.5391 14.3391 76.5299 14.8241 76.6357 15.2832C76.8273 16.1173 76.6841 19.0753 76.4237 19.6562C76.3292 19.8669 76.2278 20.4071 76.1991 20.8564C76.1367 21.8271 75.7894 22.0256 75.704 21.1396C75.601 20.0719 75.2851 20.4605 75.2851 21.6553C75.285 23.0077 74.9638 23.3652 74.7802 22.2178L74.6513 21.4102L74.1005 22.0645C73.7973 22.4242 73.415 22.8627 73.2509 23.0391C72.8411 23.479 73.0821 24.123 73.7167 24.2822C73.998 24.3529 74.3212 24.5043 74.4345 24.6182C74.7548 24.9405 75.1525 26.4476 75.1962 27.5049C75.2178 28.0302 75.2539 28.5035 75.2753 28.5576C75.4031 28.8702 75.4824 29.6903 75.5985 31.8828C75.7283 34.3334 75.7269 34.3452 75.3222 34.2168C74.7521 34.0359 74.6224 34.6909 74.8183 36.7588C75.0948 39.6782 75.0613 40.1307 74.5673 40.2012C74.2561 40.2454 74.137 40.1656 74.1376 39.9141C74.1391 39.3324 73.5015 37.7486 73.2655 37.7471C73.055 37.7472 72.9647 38.4222 72.6269 42.5322C72.5142 43.9039 72.4873 43.9687 72.0302 43.9688C71.5552 43.9687 71.5527 43.9566 71.5849 42.3408C71.6027 41.4465 71.6412 40.4362 71.6708 40.0947C71.7106 39.6363 71.5903 39.3348 71.2079 38.9355C70.8475 38.5593 70.6904 38.1925 70.6903 37.7246C70.6902 37.3561 70.5643 36.8873 70.4101 36.6826C70.2556 36.4786 70.1255 36.1179 70.122 35.8809C70.1178 35.5814 70.0007 35.4494 69.7372 35.4492C69.4783 35.4492 69.3224 35.2821 69.246 34.9229C69.1487 34.4655 68.9181 33.6224 68.2108 31.1426C68.1209 30.8268 67.9923 30.2489 67.9257 29.8584C67.8593 29.4684 67.6795 28.9085 67.5263 28.6143C67.3731 28.3207 67.247 27.9341 67.246 27.7559C67.2454 27.5781 67.1587 27.3789 67.0536 27.3135C66.9384 27.2423 66.8622 27.4955 66.8622 27.9492C66.8621 28.3631 66.7446 28.7992 66.6015 28.9189C66.4579 29.038 66.2831 29.6177 66.2138 30.207C66.1316 30.9068 65.9614 31.3883 65.7226 31.5938C65.2566 31.9942 64.9178 33.9729 64.7704 37.1572C64.6941 38.8067 64.5868 39.559 64.4208 39.6143C64.2435 39.6723 64.1816 39.3103 64.1816 38.2119C64.1816 36.749 64.1769 36.7344 63.8036 37.0723C63.5957 37.2605 63.2406 37.7968 63.0146 38.2637C62.6811 38.9528 62.6293 39.2982 62.7362 40.1045C62.9129 41.4355 62.8811 42.293 62.6396 42.7441C62.3984 43.1944 62.075 43.0578 62.205 42.5605C62.2555 42.3649 62.0746 41.4775 61.8036 40.5889C61.5205 39.6605 61.3106 38.5073 61.3105 37.8809C61.3105 36.9182 61.2653 36.7902 60.9276 36.79C60.5553 36.79 60.5448 36.9183 60.5419 41.4316C60.539 45.7647 60.3942 47.1892 60.0487 46.29C59.9752 46.0986 59.9606 43.4338 60.0155 40.3691C60.113 34.9419 60.1042 34.7824 59.7157 34.2568C59.3847 33.809 59.2917 33.301 59.1689 31.2812C59.0399 29.1605 58.744 17.8218 58.7831 16.498C58.809 15.6274 58.8225 14.3048 58.8124 13.7217C58.7837 12.0783 58.8334 11.3226 58.9989 10.8867C59.1622 10.4576 59.2639 10.4163 59.9316 10.5059C60.3643 10.5638 60.8725 10.5042 61.1337 10.3643C61.5557 10.1395 65.1619 9.73555 68.9491 9.48926C69.8341 9.43182 70.9116 9.31927 71.3427 9.23926C71.774 9.1591 72.6803 9.10638 73.3564 9.12207ZM92.2187 6.69141C93.3038 6.6939 93.3941 6.73234 94.0849 7.47266C94.5911 8.01548 94.8103 8.4251 94.8105 8.82617C94.8106 9.14258 94.9556 9.70355 95.1317 10.0732C95.3803 10.5946 95.4095 10.8862 95.2636 11.3721C95.1599 11.7163 95.1381 12.2978 95.2148 12.6641C95.3853 13.4756 95.1993 16.6599 94.9735 16.8018C94.884 16.8571 94.8105 17.3355 94.8105 17.8643C94.8105 18.5511 94.7422 18.8023 94.5712 18.7422C94.4397 18.6954 94.3448 18.3873 94.3603 18.0566C94.3757 17.7266 94.311 17.5043 94.2167 17.5625C94.1224 17.6212 94.0449 18.0444 94.0448 18.5029C94.0448 18.9614 93.9932 19.4723 93.9296 19.6387C93.7389 20.1358 93.4714 19.7783 93.4687 19.0225L93.4657 18.3154L93.037 18.8584C92.8014 19.1568 92.4176 19.6191 92.1835 19.8857C91.8535 20.2617 91.8016 20.4518 91.9511 20.7314C92.0573 20.9293 92.2669 21.0916 92.4169 21.0918C93.15 21.0918 93.9162 22.7981 93.9638 24.5371C93.9768 25.0108 94.0807 26.6014 94.1942 28.0713C94.3966 30.6931 94.3557 31.3453 94.0214 30.8271C93.493 30.0085 93.3571 32.718 93.7831 35.5928C94.2092 38.4677 93.7939 36.4065 93.4003 36.4062C93.0069 36.4062 92.8958 36.3119 92.8925 35.9756C92.89 35.7384 92.7127 35.1584 92.4989 34.6875C92.1975 34.0231 92.071 33.8946 91.9335 34.1133C91.8361 34.2684 91.8036 34.5479 91.8612 34.7334C91.9188 34.9191 91.8617 35.7181 91.7343 36.5088C91.6067 37.2996 90.4234 37.6641 90.622 36.874C90.8208 36.0839 90.8007 35.9769 90.3349 35.3662C90.033 34.9703 89.8308 34.4566 89.8271 34.0742C89.8237 33.7251 89.6946 33.2716 89.54 33.0674C89.3856 32.8629 89.2588 32.5069 89.2587 32.2764C89.2586 32.0298 89.1136 31.818 88.9062 31.7637C88.5327 31.6654 88.2476 30.7967 87.5087 27.5049C87.2958 26.5574 87.0102 25.5229 86.8739 25.207C86.7375 24.8913 86.583 24.5036 86.5312 24.3457C86.4791 24.1886 86.3738 24.3786 86.2968 24.7695C86.2197 25.1606 86.0356 25.5801 85.8886 25.7021C85.7279 25.8358 85.6221 26.291 85.622 26.8467C85.622 27.527 85.5288 27.835 85.2675 28.0195C84.8203 28.335 84.4489 30.6792 84.3866 33.584C84.3623 34.7159 84.286 35.6993 84.2167 35.7695C83.9332 36.053 83.8052 35.533 83.8446 34.2559L83.8866 32.9053L83.4208 33.3428C82.6825 34.0363 82.2946 35.4497 82.5351 36.5713C82.7477 37.5629 82.525 38.8945 82.1464 38.8945C82.0352 38.8942 81.989 38.7772 82.0439 38.6338C82.0987 38.4893 81.9382 37.6489 81.6864 36.7666C81.4347 35.884 81.2263 34.6668 81.2235 34.0615C81.2195 33.0903 81.1737 32.96 80.8358 32.96C80.4641 32.9601 80.453 33.09 80.453 37.543C80.453 41.7137 80.3119 43.0641 79.997 41.9072C79.9331 41.666 79.9369 39.1286 80.0058 36.2637C80.1223 31.4104 80.1073 31.0209 79.787 30.667C79.5117 30.3621 79.4105 29.7624 79.2802 27.6514C79.1491 25.528 78.867 14.5767 78.914 13.4346C78.9207 13.2753 78.9337 12.1745 78.9423 10.9883C78.963 8.10925 79.0605 7.76943 79.8456 7.84961C80.1806 7.88387 80.7344 7.82158 81.0761 7.71191C81.4178 7.60242 82.7747 7.41936 84.0907 7.30469C85.4067 7.19022 87.5168 7.00475 88.7802 6.89258C90.0435 6.78041 91.5912 6.68989 92.2187 6.69141ZM26.5175 38.2646C26.1929 38.3271 26.0869 38.4797 26.0868 38.8848C26.0869 39.5961 26.5616 40.0178 26.8124 39.5293C27.081 39.0058 27.2622 38.1269 27.0956 38.1553C27.0147 38.1696 26.7545 38.2189 26.5175 38.2646ZM115.965 5.77539C116.362 5.60481 123.344 5.69239 125.291 5.89258C126.334 5.99975 126.413 6.04692 126.966 6.88184C127.285 7.36354 127.547 7.93415 127.547 8.14941C127.547 8.3652 127.685 8.90546 127.855 9.35059C128.079 9.93591 128.116 10.3095 127.988 10.6973C127.891 10.9923 127.868 11.4919 127.938 11.8076C128.101 12.5421 127.933 15.3862 127.714 15.627C127.622 15.7271 127.547 16.1847 127.547 16.6436C127.547 17.5447 127.186 17.6164 127.134 16.7256C127.117 16.4427 127.053 16.6225 126.99 17.125C126.865 18.1348 126.527 18.4211 126.433 17.5986C126.379 17.1322 126.015 16.8174 126.015 17.2373C126.014 17.3287 125.792 17.6259 125.52 17.8975C125.009 18.4086 125.009 19.1777 125.519 19.1777C126.16 19.1783 126.772 20.6507 126.872 22.4326C126.899 22.9073 126.989 24.5004 127.073 25.9736C127.213 28.4319 127.2 28.632 126.915 28.3975C126.646 28.1753 126.589 28.2052 126.483 28.626C126.416 28.893 126.461 30.0332 126.582 31.1592C126.737 32.5977 126.742 33.2664 126.6 33.4092C126.316 33.6934 126.143 33.4348 125.754 32.1475C125.571 31.543 125.348 31.0483 125.259 31.0469C125.169 31.0472 125.035 32.1453 124.959 33.4873C124.807 36.1829 124.642 36.7757 124.157 36.374C123.907 36.1665 123.877 35.8233 123.976 34.3037C124.082 32.6948 124.052 32.408 123.716 31.8555C123.506 31.5113 123.335 31.0262 123.335 30.7783C123.335 30.5305 123.204 30.016 123.045 29.6348C122.885 29.2534 122.816 28.9414 122.891 28.9414C122.963 28.9408 122.864 28.8239 122.67 28.6816C122.296 28.4084 121.244 24.5904 121.234 23.4756C121.232 23.1551 121.15 22.8107 121.053 22.71C120.956 22.6101 120.792 22.2266 120.687 21.8584L120.498 21.1885L120.48 21.7871C120.471 22.1161 120.334 22.4928 120.177 22.624C120.004 22.767 119.889 23.1852 119.889 23.6699C119.889 24.217 119.773 24.5838 119.53 24.8037C119.079 25.2117 118.813 27.2793 118.757 30.8076C118.748 31.3594 118.654 31.8114 118.549 31.8125C118.439 31.8115 118.357 31.2296 118.357 30.4492C118.357 29.2366 118.325 29.1131 118.059 29.333C117.474 29.8188 117.205 30.8581 117.25 32.4609C117.276 33.3959 117.202 34.1655 117.065 34.3965C116.859 34.7428 116.836 34.7154 116.827 34.1094C116.821 33.7407 116.647 32.7986 116.438 32.0166C116.23 31.2343 116.061 30.2222 116.06 29.7676C116.06 29.1516 115.985 28.9417 115.766 28.9414C115.511 28.9417 115.473 29.4117 115.486 32.4346C115.508 37.424 115.509 37.4005 115.292 37.2666C115.169 37.1876 115.102 35.3203 115.109 32.1318C115.118 28.1814 115.063 26.975 114.846 26.4492C114.668 26.0195 114.523 24.6588 114.438 22.624C114.262 18.3942 114.179 9.32483 114.298 7.34082L114.393 5.74512L114.987 5.84375C115.314 5.89744 115.754 5.86647 115.965 5.77539ZM106.051 6.48828C106.52 6.01908 108.654 6.03648 109.598 6.51758C110.459 6.95653 111.274 7.89337 111.274 8.44336C111.274 8.66793 111.395 8.89808 111.542 8.95508C111.817 9.06056 112.067 10.9786 112.063 12.9561C112.051 19.9133 111.925 23.2239 111.668 23.3828C111.259 23.6361 110.897 25.0465 110.893 26.4043C110.891 27.338 110.828 27.6002 110.604 27.6006C110.384 27.6005 110.316 27.3541 110.316 26.5361C110.316 25.8758 110.244 25.5173 110.125 25.5908C110.018 25.6597 109.934 26.5479 109.934 27.6006C109.933 30.2042 109.447 30.4318 109.313 27.8906C109.268 27.0158 109.24 26.9654 108.976 27.2783C108.818 27.4662 108.534 27.7764 108.344 27.9688C108.053 28.2631 107.923 28.6771 107.842 29.5625C107.834 29.6416 107.644 29.8912 107.419 30.1162C107.024 30.511 107.017 30.5845 107.247 32.1279C107.512 33.9089 107.446 34.3007 106.881 34.3008C106.619 34.3007 106.455 34.1322 106.369 33.7744C106.165 32.9241 105.513 31.7528 105.345 31.9326C105.146 35.1995 103.776 34.9575 103.724 34.3008C103.671 33.644 103.749 33.5415 103.225 33.0088C102.78 32.5553 102.639 32.2612 102.704 31.9209C102.753 31.6644 102.719 31.3406 102.629 31.2021C102.503 31.0092 102.376 31.0623 102.083 31.4297C101.503 32.1558 101.433 32.7009 101.796 33.6504C102.168 34.6254 102.056 34.9407 101.533 34.3857C101.054 33.8764 100.554 32.5169 100.554 31.7217C100.554 31.3609 100.441 30.9965 100.302 30.9121C99.9347 30.6895 98.8315 29.017 98.831 28.6826C98.8307 28.5257 98.6643 28.009 98.4608 27.5342C98.257 27.0589 97.9437 25.9315 97.7646 25.0293C97.4953 23.6739 97.3765 23.3898 97.0819 23.3896C96.7655 23.3896 96.724 23.2219 96.7177 21.9053C96.6773 13.5297 96.7357 11.9108 97.1064 11.042C97.1961 10.8316 97.3167 10.4439 97.3749 10.1807C97.4329 9.91755 97.7842 9.36323 98.1552 8.94922C98.5263 8.53559 98.8306 8.09646 98.831 7.97363C98.8311 7.27653 100.413 6.7748 103.042 6.6377C103.937 6.59119 104.906 6.49726 105.196 6.42969C105.568 6.34311 105.722 6.38175 105.723 6.56152C105.723 6.74463 105.815 6.72442 106.051 6.48828ZM47.3232 19.1777C47.0068 19.1777 46.953 19.3165 46.953 20.1348C46.953 20.8574 46.8825 21.0915 46.6659 21.0918C46.3538 21.0918 46.325 20.974 46.3749 19.8955C46.3936 19.4907 46.3183 19.1786 46.2021 19.1777C46.0887 19.1777 45.9848 19.3714 45.9706 19.6084C45.9563 19.8457 45.9649 21.2519 45.9901 22.7334C46.0273 24.9116 45.9959 25.4128 45.7597 25.6992L45.6601 25.8086C45.4246 26.0958 45.3869 26.6167 45.4052 28.8027C45.4274 31.4634 45.4389 31.5352 45.914 31.9561C46.544 32.5142 46.9097 32.5005 47.1796 31.9082C47.2994 31.645 47.5069 31.4298 47.6405 31.4297C47.8314 31.4278 47.8841 30.1891 47.8847 25.6387C47.8849 22.4551 47.8418 19.6991 47.789 19.5127C47.7364 19.3285 47.5265 19.1779 47.3232 19.1777ZM73.831 30.4727C73.6831 30.4729 73.5624 30.645 73.5624 30.8555C73.5625 31.0658 73.6386 31.2383 73.7314 31.2383C73.8243 31.2376 73.9458 31.0655 74.0009 30.8555C74.0659 30.6068 74.0057 30.4728 73.831 30.4727ZM52.7431 30.1855C52.8503 29.6251 52.866 29.6359 52.4159 29.9648C52.2221 30.1069 52.1244 30.3222 52.1991 30.4434C52.4211 30.8022 52.6452 30.6963 52.7431 30.1855ZM11.5077 27.2539C11.2287 27.2217 10.9606 27.2649 10.912 27.3496C10.864 27.4346 10.7694 27.7354 10.7021 28.0176C10.6033 28.4312 10.6584 28.5566 10.9843 28.6602C11.471 28.8146 11.8642 28.4626 11.953 27.792C12.0054 27.3969 11.9276 27.3023 11.5077 27.2539ZM92.7743 27.5049C92.886 27.2135 92.6823 27.1127 92.4501 27.3447C92.2671 27.5275 92.2926 27.7919 92.4931 27.792C92.587 27.792 92.7136 27.6626 92.7743 27.5049ZM125.748 24.7812C125.684 24.7177 125.639 24.8306 125.647 25.0322C125.657 25.2547 125.702 25.3005 125.763 25.1484C125.818 25.0106 125.811 24.8452 125.748 24.7812ZM42.7421 24.0703C42.7421 23.3711 42.7067 23.2962 42.4862 23.5166C42.2901 23.7127 42.335 24.5005 42.5497 24.6338C42.6634 24.7035 42.7421 24.4752 42.7421 24.0703ZM105.017 12.9121C104.869 12.8632 104.768 13.1289 104.729 13.6621C104.651 14.7439 104.313 14.7212 104.188 13.626C104.134 13.1445 104.038 12.8913 103.972 13.0518C103.906 13.2107 103.899 14.3904 103.955 15.6738C104.038 17.5798 104.003 18.092 103.762 18.46C103.541 18.7961 103.459 19.4992 103.438 21.2256C103.411 23.5218 103.415 23.5452 103.923 23.9443L104.434 24.3467L104.875 23.8701C105.315 23.3952 105.316 23.3816 105.28 18.1914C105.253 14.3703 105.184 12.9697 105.017 12.9121ZM68.6962 16.3066C68.5037 16.3067 68.3967 16.558 68.3564 17.1055C68.2722 18.2469 67.8193 18.3128 67.8192 17.1836C67.8192 16.5477 67.7427 16.3069 67.5429 16.3066C67.3912 16.3068 67.2166 16.3894 67.1542 16.4902C67.0918 16.5919 66.9622 17.216 66.8671 17.8779C66.7717 18.5404 66.5178 19.8573 66.3026 20.8047C65.8321 22.8761 65.8118 23.4602 66.1972 23.8457C66.5887 24.2371 66.9605 24.0629 67.4618 23.252C67.6906 22.8816 68.2176 22.1867 68.6327 21.707C69.0479 21.2274 69.5672 20.4641 69.787 20.0117C70.1322 19.3011 70.1526 19.126 69.9374 18.7236C69.8002 18.4674 69.7408 18.1728 69.8046 18.0693C69.8685 17.966 69.7922 17.7747 69.6357 17.6445C69.3886 17.4394 69.3505 17.564 69.3505 18.5801C69.3505 19.536 69.2929 19.7515 69.038 19.752C68.762 19.752 68.7391 19.5478 68.8505 18.0293C68.9563 16.586 68.9313 16.3069 68.6962 16.3066ZM108.976 22.6621C108.976 22.1998 108.878 22.1288 108.68 22.4492C108.609 22.5637 108.647 22.7531 108.764 22.8701C108.92 23.0263 108.976 22.9707 108.976 22.6621ZM28.1151 19.5605C28.0878 19.5605 27.977 19.8478 27.8691 20.1992C27.7144 20.703 27.7391 20.9673 27.9843 21.4414C28.2811 22.0153 28.3063 22.0261 28.5312 21.666C28.6609 21.4585 28.7665 21.1705 28.7665 21.0273C28.7655 20.7821 28.224 19.5624 28.1151 19.5605ZM88.1103 15.1953C88.1102 13.5659 87.9338 13.004 87.6523 13.7373C87.5884 13.904 87.5361 14.2917 87.536 14.5986C87.536 14.9058 87.4499 15.1572 87.3446 15.1572C87.2395 15.1565 87.1533 14.8121 87.1532 14.3916C87.1532 13.865 87.0702 13.626 86.8866 13.626C86.5465 13.6262 86.3876 14.0454 86.3876 14.9434C86.3876 15.3346 86.3116 15.7368 86.2187 15.8369C86.0174 16.0535 85.4302 19.2057 85.4306 20.0664C85.4311 20.5747 85.6916 20.9001 86.0995 20.9004C86.1346 20.9004 86.4894 20.4472 86.8876 19.8945C87.286 19.3419 87.854 18.6068 88.1493 18.2607C88.8288 17.4642 89.3129 16.3191 89.1337 15.9326C89.058 15.769 88.9908 15.4707 88.9843 15.2695C88.9777 15.0685 88.8814 14.8731 88.7714 14.8359C88.6534 14.7973 88.561 15.1337 88.5458 15.6572C88.5318 16.1462 88.4281 16.639 88.3153 16.752C88.17 16.8969 88.1103 16.4462 88.1103 15.1953ZM41.4638 19.4463C41.3556 19.1642 40.9803 19.0891 40.7636 19.3057C40.5587 19.5108 40.6165 20.1007 40.8564 20.249C41.1349 20.42 41.601 19.8045 41.4638 19.4463ZM64.7558 17.8174C64.7558 17.4537 64.5478 17.3445 64.3095 17.583C64.0499 17.8428 64.1759 18.4018 64.4687 18.29C64.6264 18.2293 64.7556 18.0165 64.7558 17.8174ZM121.038 12.3711C121.038 11.7476 120.876 11.555 120.591 11.8398C120.521 11.9103 120.463 12.2502 120.463 12.5957C120.463 12.9416 120.333 13.7247 120.174 14.335C120.014 14.9456 119.83 16.0243 119.764 16.7324C119.658 17.8652 119.685 18.0368 119.991 18.1543C120.239 18.2493 120.426 18.1546 120.641 17.8252C120.806 17.5709 121.22 17.052 121.56 16.6719C122.412 15.7202 122.979 14.4184 122.738 13.9668C122.648 13.7987 122.604 13.6059 122.629 13.5059L122.658 13.4336C122.683 13.34 122.644 13.1766 122.559 13.043C122.436 12.8479 122.383 13.0029 122.381 13.5625C122.377 14.5284 122.195 15.0981 121.994 14.7744C121.918 14.6512 121.895 13.911 121.944 13.1309C122.004 12.1725 121.964 11.7127 121.822 11.7119C121.707 11.7124 121.612 11.9205 121.612 12.1748C121.612 12.8009 121.417 13.2633 121.209 13.1357C121.115 13.0776 121.038 12.7332 121.038 12.3711ZM101.435 16.8701C101.46 16.2047 101.393 16.1552 101.218 16.708C101.148 16.9291 101.163 17.1837 101.253 17.2725C101.342 17.3608 101.424 17.1798 101.435 16.8701ZM63.3817 15.7002C63.2922 15.0909 62.9079 15.0603 62.7597 15.6504C62.6101 16.2461 62.7075 16.3987 63.1337 16.2354C63.3182 16.1645 63.4183 15.9491 63.3817 15.7002ZM84.1679 14.583C84.0202 14.5834 83.8995 14.7556 83.8993 14.9658C83.8994 15.1762 83.9755 15.3484 84.0683 15.3486C84.1613 15.3484 84.2827 15.1762 84.3378 14.9658C84.4028 14.7172 84.3428 14.583 84.1679 14.583ZM100.409 12.9082C100.257 12.494 99.9794 12.6484 99.9794 13.1475C99.9794 13.4104 100.059 13.6257 100.155 13.626C100.379 13.6256 100.523 13.2186 100.409 12.9082ZM82.8593 12.4766C82.6642 12.4768 82.5596 12.6505 82.5595 12.9717C82.5596 13.5712 83.0082 13.5053 83.0985 12.8926C83.139 12.6166 83.0587 12.4766 82.8593 12.4766ZM118.691 12.54C118.612 12.206 118.601 12.2064 118.459 12.5342C118.377 12.7227 118.364 12.9304 118.43 12.9961C118.624 13.1896 118.781 12.9169 118.691 12.54ZM117.448 10.2285C117.297 10.178 117.209 10.3358 117.209 10.6592C117.209 10.9822 117.297 11.1403 117.448 11.0898C117.58 11.0459 117.687 10.8519 117.687 10.6592C117.687 10.4665 117.58 10.2727 117.448 10.2285Z" fill="#FF504A"/>
</svg>
