<svg width="24" height="24" viewBox="0 0 24 24" fill="none" xmlns="http://www.w3.org/2000/svg">
<path d="M17.336 18.4864L14.6515 18.0391C14.2405 17.9705 13.8612 17.7752 13.5665 17.4805L6.14659 10.0606C5.56085 9.47481 5.56085 8.52527 6.14659 7.9395L7.93956 6.14653C8.48872 5.59741 9.35725 5.5635 9.94639 6.04399L10.0607 6.14653L17.4806 13.5665C17.7752 13.8611 17.9706 14.2404 18.0392 14.6514L18.4864 17.336C18.5394 17.6544 18.4354 17.9788 18.2071 18.2071C17.9789 18.4354 17.6545 18.5393 17.336 18.4864ZM10.3966 7.89653L9.35362 6.85356C9.15837 6.65835 8.84184 6.65835 8.64659 6.85356L6.85362 8.64653L6.78917 8.72465C6.66104 8.91872 6.6828 9.18271 6.85362 9.35356L7.89659 10.3965L10.3966 7.89653ZM17.0528 14.8165C17.0271 14.6622 16.9654 14.5168 16.8741 14.3916L16.7735 14.2735L11.1036 8.60356L8.60362 11.1036L14.2735 16.7735L14.3917 16.8741C14.5169 16.9653 14.6623 17.0271 14.8165 17.0528L17.5001 17.5L17.0528 14.8165Z" fill="black"/>
</svg>
