<svg width="24" height="24" viewBox="0 0 24 24" fill="none" xmlns="http://www.w3.org/2000/svg">
<path d="M17.0728 15.2393C17.2167 15.0038 17.5247 14.9295 17.7603 15.0733C17.9959 15.2172 18.0703 15.5251 17.9263 15.7608L17.5806 16.3272C16.9455 17.3663 15.815 17.9999 14.5972 18C14.0123 18 13.4358 17.8533 12.9224 17.5733L10.5972 16.3047C10.2307 16.1049 9.81932 16 9.40188 16C8.53255 16.0002 7.72536 16.4526 7.272 17.1943L6.9263 17.7608C6.78229 17.9963 6.47439 18.0707 6.2388 17.9268C6.00345 17.7827 5.92894 17.4748 6.07278 17.2393L6.41848 16.6729C7.05349 15.6338 8.18416 15.0002 9.40188 15C9.98675 15 10.5632 15.1468 11.0767 15.4268L13.4019 16.6953C13.7684 16.8952 14.1798 17 14.5972 17C15.4666 16.9999 16.2736 16.5475 16.7271 15.8057L17.0728 15.2393ZM17.0728 10.7393C17.2167 10.5038 17.5247 10.4295 17.7603 10.5733C17.9959 10.7172 18.0703 11.0251 17.9263 11.2608L17.5806 11.8272C16.9455 12.8663 15.815 13.4999 14.5972 13.5C14.0123 13.5 13.4358 13.3533 12.9224 13.0733L10.5972 11.8047C10.2307 11.6049 9.81932 11.5 9.40188 11.5C8.53255 11.5002 7.72536 11.9526 7.272 12.6943L6.9263 13.2608C6.78229 13.4963 6.47439 13.5707 6.2388 13.4268C6.00345 13.2827 5.92894 12.9748 6.07278 12.7393L6.41848 12.1729C7.05349 11.1338 8.18416 10.5002 9.40188 10.5C9.98675 10.5 10.5632 10.6468 11.0767 10.9268L13.4019 12.1953C13.7684 12.3952 14.1798 12.5 14.5972 12.5C15.4666 12.4999 16.2736 12.0475 16.7271 11.3057L17.0728 10.7393ZM17.0728 6.23927C17.2167 6.00375 17.5247 5.92954 17.7603 6.07325C17.9959 6.21724 18.0703 6.52513 17.9263 6.76075L17.5806 7.32716C16.9455 8.36629 15.815 8.99991 14.5972 9.00001C14.0123 8.99995 13.4358 8.85332 12.9224 8.57325L10.5972 7.3047C10.2307 7.10491 9.81932 7.00001 9.40188 7.00001C8.53255 7.00023 7.72536 7.45257 7.272 8.19435L6.9263 8.76075C6.78229 8.9963 6.47439 9.07071 6.2388 8.92677C6.00345 8.78272 5.92894 8.47478 6.07278 8.23927L6.41848 7.67286C7.05349 6.63378 8.18416 6.00023 9.40188 6.00001C9.98675 6.00001 10.5632 6.14675 11.0767 6.42677L13.4019 7.69532C13.7684 7.89516 14.1798 7.99995 14.5972 8.00001C15.4666 7.99991 16.2736 7.5475 16.7271 6.80567L17.0728 6.23927Z" fill="black" fill-opacity="0.9"/>
</svg>
