<svg fill="none" height="24" viewBox="0 0 24 24" width="24" xmlns="http://www.w3.org/2000/svg"><path d="m12 3c1.3807 0 2.5 1.11929 2.5 2.5 0 .47166-.1324.91476-.3613 1.29199-.056.09221-.0898.15753-.1123.20801h2.9736c.5523 0 1 .44772 1 1v1.88086c0 .32464-.1577.62894-.4229.81644-.2651.1874-.605.2343-.9111.1259-.1358-.048-.2749-.0732-.416-.0732-.6904 0-1.25.5597-1.25 1.25s.5596 1.25 1.25 1.25c.1389 0 .2778-.0253.416-.0742.3061-.1084.646-.0615.9111.126.2652.1874.4229.4917.4229.8164v1.8818c0 .5523-.4477 1-1 1h-2.9736c.0225.0505.0563.1158.1123.208.2289.3772.3613.8203.3613 1.292 0 1.3807-1.1193 2.5-2.5 2.5s-2.5-1.1193-2.5-2.5c0-.4717.13241-.9148.36133-1.292.05595-.0922.08977-.1575.1123-.208h-2.97363c-.55228 0-1-.4477-1-1v-1.8818l.00684-.1211c.03389-.2782.18415-.5314.41601-.6953.26518-.1875.60504-.2344.91113-.126.13825.0489.27714.0742.41602.0742l.12793-.0068c.58816-.0599 1.05542-.5271 1.11523-1.1153l.00684-.1279c0-.6471-.49183-1.1791-1.12207-1.2432l-.12793-.0068c-.14108 0-.28022.0252-.41602.0732-.30608.1084-.64599.0615-.91113-.1259-.26511-.1875-.42285-.4918-.42285-.81644v-1.88086c0-.55228.44772-1 1-1h2.97363c-.02253-.05048-.05635-.1158-.1123-.20801-.22892-.37723-.36133-.82033-.36133-1.29199 0-1.38071 1.1193-2.5 2.5-2.5zm0 1c-.8284 0-1.5.67157-1.5 1.5 0 .28327.0789.54789.2158.77344.1473.24275.2842.50414.2842.78808v.93848h-4v1.88086c.23483-.08311.4867-.13086.75-.13086 1.24263.00001 2.25 1.0074 2.25 2.25-.00001 1.2426-1.00737 2.25-2.25 2.25-.26342 0-.51508-.0487-.75-.1318v1.8818h4v.9385c0 .2839-.1369.5453-.2842.7881-.1369.2255-.2158.4901-.2158.7734 0 .8284.6716 1.5 1.5 1.5s1.5-.6716 1.5-1.5c0-.2833-.0789-.5479-.2158-.7734-.1473-.2428-.2842-.5042-.2842-.7881v-.9385h4v-1.8818c-.2349.0831-.4866.1318-.75.1318-1.2426 0-2.25-1.0074-2.25-2.25s1.0074-2.25 2.25-2.25c.2633 0 .5152.04775.75.13086v-1.88086h-4v-.93848c0-.28394.1369-.54533.2842-.78808.1369-.22555.2158-.49017.2158-.77344 0-.82843-.6716-1.5-1.5-1.5z" fill="#000"/></svg>