<svg width="24" height="24" viewBox="0 0 24 24" fill="none" xmlns="http://www.w3.org/2000/svg">
<path id="color" d="M13.4072 5.05768C14.017 4.93485 14.6341 4.97935 15.0645 5.40045C15.4618 5.78937 15.5307 6.28159 15.4072 6.75494C15.2924 7.19478 15.0101 7.64238 14.6729 8.0694C13.9939 8.92886 12.9326 9.89748 11.9248 10.8282C10.8937 11.7805 9.91578 12.6954 9.31934 13.4913C9.0197 13.8912 8.85325 14.2147 8.80176 14.46C8.75762 14.6709 8.79937 14.801 8.92188 14.921C9.00315 15.0003 9.10606 15.0419 9.2998 15.0118C9.5167 14.9779 9.80498 14.8565 10.166 14.6339C10.8868 14.1893 11.7272 13.451 12.6113 12.668C13.473 11.9049 14.3792 11.0969 15.1807 10.5919C15.5803 10.3401 15.9976 10.1346 16.4023 10.0645C16.8296 9.99065 17.2727 10.0665 17.625 10.4112C17.9236 10.7036 18.028 11.0696 17.9932 11.4405C17.9607 11.7849 17.8104 12.1245 17.6289 12.4337C17.2665 13.051 16.6659 13.7297 16.1143 14.3555C15.5398 15.0072 15.014 15.6069 14.7109 16.1231C14.5599 16.3804 14.4929 16.572 14.4805 16.7042C14.4706 16.8095 14.4935 16.8668 14.5527 16.9249C14.6011 16.9722 14.7341 17.057 15.0811 16.9327C15.4366 16.8051 15.9343 16.4772 16.5459 15.8321C16.7359 15.632 17.0517 15.6237 17.252 15.8135C17.4522 16.0034 17.4609 16.3192 17.2715 16.5196C16.6055 17.222 15.9802 17.6725 15.418 17.8741C14.8471 18.0787 14.2659 18.0433 13.8535 17.6397C13.5547 17.3472 13.4495 16.9815 13.4844 16.6104C13.5168 16.2661 13.6672 15.9263 13.8486 15.6172C14.2111 14.9998 14.8125 14.3203 15.3643 13.6944C15.9385 13.0429 16.4636 12.4438 16.7666 11.9278C16.9177 11.6704 16.9856 11.4789 16.998 11.3467C17.0079 11.2412 16.9843 11.1833 16.9248 11.1251C16.8549 11.0569 16.7629 11.0169 16.5723 11.0499C16.3587 11.0869 16.073 11.2113 15.7139 11.4376C14.9972 11.8892 14.1595 12.6322 13.2744 13.4161C12.4117 14.1801 11.5006 14.9858 10.6904 15.4854C10.2864 15.7346 9.86413 15.9361 9.45312 16.0001C9.01901 16.0676 8.5755 15.9811 8.22168 15.6348C7.8201 15.2415 7.71992 14.7483 7.82324 14.2549C7.91961 13.7956 8.18989 13.3316 8.51953 12.8917C9.18219 12.0074 10.2369 11.0268 11.2471 10.0938C12.2804 9.13947 13.2702 8.23221 13.8887 7.44928C14.1997 7.05545 14.3776 6.73964 14.4395 6.50299C14.4924 6.29993 14.4541 6.20131 14.3652 6.11432C14.2835 6.03459 14.0817 5.94201 13.6045 6.03815C13.1376 6.13223 12.5138 6.39017 11.7422 6.84088C10.2048 7.73888 8.18986 9.33645 5.84961 11.627C5.65226 11.8199 5.33565 11.8164 5.14258 11.6192C4.94953 11.4219 4.95311 11.1053 5.15039 10.9122C7.51993 8.59295 9.60065 6.93262 11.2373 5.97662C12.0526 5.50042 12.7862 5.18281 13.4072 5.05768Z" fill="black"/>
<style>
 :target{
    fill: #00A2C2;
 }
</style>
</svg>
