<svg fill="none" height="24" viewBox="0 0 24 24" width="24" xmlns="http://www.w3.org/2000/svg"><path d="m19.5 5c.8284 0 1.5.67157 1.5 1.5v9l-.0078.1533c-.0717.706-.6329 1.2672-1.3389 1.3389l-.1533.0078h-1.3555c.8309.733 1.3555 1.805 1.3555 3h-1c0-1.6569-1.3431-3-3-3h-7c-1.65685 0-3 1.3431-3 3h-1c0-1.195.52463-2.267 1.35547-3h-1.35547l-.15332-.0078c-.70599-.0717-1.26719-.6329-1.33887-1.3389l-.00781-.1533v-9c0-.82843.67157-1.5 1.5-1.5zm-15 1c-.27614 0-.5.22386-.5.5v9c0 .2761.22386.5.5.5h2.5v-5c-.55228 0-1-.4477-1-1v-1c0-.55228.44772-1 1-1v-2zm3.5 10h8v-10h-8zm9-8c.5523 0 1 .44772 1 1v1c0 .5523-.4477 1-1 1v5h2.5c.2761 0 .5-.2239.5-.5v-9c0-.27614-.2239-.5-.5-.5h-2.5zm-5.25 0c.4142 0 .75.33579.75.75v1.5c0 .4142-.3358.75-.75.75s-.75-.3358-.75-.75v-1.5c0-.41421.3358-.75.75-.75z" fill="#000"/></svg>