<svg fill="none" height="24" viewBox="0 0 24 24" width="24" xmlns="http://www.w3.org/2000/svg" xmlns:xlink="http://www.w3.org/1999/xlink"><clipPath id="a"><path d="m8 6h8v12h-8z"/></clipPath><g clip-path="url(#a)"><path d="m8 16c0-1.1046.89543-2 2-2h2v2c0 1.1046-.8954 2-2 2-1.10457 0-2-.8954-2-2z" fill="#24cb71"/><path d="m12 6v4h2c1.1046 0 2-.89543 2-2s-.8954-2-2-2z" fill="#ff7237"/><path d="m13.9834 14c1.1046 0 2-.8954 2-2s-.8954-2-2-2-2 .8954-2 2 .8954 2 2 2z" fill="#00b6ff"/><path d="m8 8c0 1.10457.89543 2 2 2h2v-4h-2c-1.10457 0-2 .89543-2 2z" fill="#ff3737"/><path d="m8 12c0 1.1046.89543 2 2 2h2v-4h-2c-1.10457 0-2 .8954-2 2z" fill="#874fff"/></g></svg>