<svg fill="none" height="24" viewBox="0 0 24 24" width="24" xmlns="http://www.w3.org/2000/svg" xmlns:xlink="http://www.w3.org/1999/xlink"><clipPath id="a"><path d="m6 3h12v18h-12z"/></clipPath><g clip-path="url(#a)"><path d="m6 18c0-1.6569 1.34315-3 3-3h3v3c0 1.6569-1.3431 3-3 3-1.65685 0-3-1.3431-3-3z" fill="#24cb71"/><path d="m12 3v6h3c1.6569 0 3-1.34315 3-3s-1.3431-3-3-3z" fill="#ff7237"/><path d="m14.9751 15c1.6569 0 3-1.3431 3-3s-1.3431-3-3-3-3 1.3431-3 3 1.3431 3 3 3z" fill="#00b6ff"/><path d="m6 6c0 1.65685 1.34315 3 3 3h3v-6h-3c-1.65685 0-3 1.34315-3 3z" fill="#ff3737"/><path d="m6 12c0 1.6569 1.34315 3 3 3h3v-6h-3c-1.65685 0-3 1.3431-3 3z" fill="#874fff"/></g></svg>