<svg fill="none" height="24" viewBox="0 0 24 24" width="24" xmlns="http://www.w3.org/2000/svg"><path d="m11.397 2.89604c1.1618-1.1613 3.0454-1.16157 4.207 0 1.1616 1.16163 1.1613 3.04526 0 4.20703l-.3974.39649 2.0254 2.02539c1.3665 1.36675 1.3665 3.58245 0 4.94925l-5.629 5.6289c-.0029.0029-.0068.0049-.0097.0078s-.0049.0068-.0078.0098l-.044.0439-.0019-.002c-1.1659 1.1008-3.00242 1.0816-4.14358-.0595-1.16136-1.1618-1.16162-3.0454 0-4.2071l1.39648-1.3964-2.39648-2.3965c-1.16136-1.1618-1.16162-3.04543 0-4.20706.00602-.00602.01249-.01161.01855-.01757zm-3.29395 13.70706c-.7711.7711-.77083 2.0217 0 2.7929.7683.7683 2.01125.7703 2.78325.0079.772-.7817.77-2.0403-.0079-2.8184l-1.37887-1.3789zm1.79297-8.00003c-.77127-.77082-2.02187-.7711-2.79297 0-.7711.77111-.77083 2.02173 0 2.79293l4.48245 4.4825c.5437.5438.8322 1.2451.8711 1.957l4.0683-4.0684c.976-.9762.976-2.5589 0-3.5351l-2.0254-2.02541-4.1455 4.14651h-.001l-.70698-.7071.25-.25c.77128-.7712.77128-2.02169 0-2.79293zm5.00098-5c-.7711-.77105-2.0217-.77078-2.793 0l-3.43064 3.42969c.70229.0408 1.39304.32683 1.92964.86328.5365.5365.8223 1.22752.8633 1.92969l3.4307-3.42969c.7708-.77125.771-2.02186 0-2.79297z" fill="#000"/></svg>