<svg fill="none" height="24" viewBox="0 0 24 24" width="24" xmlns="http://www.w3.org/2000/svg"><path d="m7.67163 5.62317c1.86137-1.86086 4.84727-1.9598 6.82817-.22656l.831.72754c.1039.0911.1663.22125.1709.35937.0045.13815-.0488.27233-.1465.37012l-.5.5c-.1413.14131-.3534.18437-.539.11035l-1.7178-.68652c-.2888-.11545-.6188-.04786-.8389.17187l-.0469.04688c-.2781.27808-.2781.72975 0 1.00781.2674.26799.2713.69659.0157.97168l6.7763 5.97949c.9346.8246.98 2.2671.0987 3.1484-.8814.8811-2.3239.8359-3.1485-.0986l-5.97751-6.7744-.12207.123c-.19513.1952-.51173.1949-.70703 0l-.54297-.5429c-.19517-.1952-.51175-.195-.70703 0l-.08593.0859c-.19519.1953-.19522.5118 0 .707l.04296.043c.09357.0937.14648.2211.14649.3535-.00005.1325-.05285.2598-.14649.3535l-1.14648 1.1465c-.39041.3904-1.02352.3902-1.41406 0l-1.79297-1.7929c-.39048-.3906-.39047-1.0236 0-1.4141l1.14648-1.14649.07813-.06446c.19404-.12797.45811-.10631.6289.06446l.04297.04297c.19528.19478.51192.19503.70703 0l.08594-.08594c.1949-.19513.19474-.51181 0-.70703l-.04297-.04297c-.09372-.09372-.14643-.22098-.14648-.35352 0-.13261.05272-.25975.14648-.35351zm2.51467 4.89843 6.0185 6.8223c.4429.5019 1.218.5259 1.6914.0527.4735-.4734.4493-1.2484-.0527-1.6914l-6.8223-6.01855zm3.6543-4.37304c-1.5847-1.38638-3.9729-1.30689-5.46194.18164l-1.71679 1.71582c.30145.56695.21387 1.28691-.26368 1.76465l-.08593.08594c-.47771.47759-1.19766.56509-1.76465.26369l-.83887.8398 1.79297 1.793.83887-.8399c-.30104-.5669-.21283-1.2861.26464-1.7636l.08594-.086c.5858-.58547 1.5354-.58563 2.1211 0l.18945.1895 1.81149-1.81251c-.468-.66783-.4042-1.59484.1924-2.19141l.0469-.04687c.503-.50264 1.2577-.65767 1.918-.39356l.9726.38868z" fill="#000"/></svg>