<svg fill="none" height="1014" viewBox="0 0 1120 1014" width="1120" xmlns="http://www.w3.org/2000/svg"><path d="m337.819 270.587c7.419-20.384 29.959-36.909 50.343-36.909h377.495l-55.096 88.582h-391.549z" fill="#55d537"/><path d="m319.012 322.26h448.114l-50.146 88.582h-430.21z" fill="#ffe71c"/><path d="m286.77 410.842h478.908l-32.241 88.583h-478.908z" fill="#fb9713"/><path d="m254.529 499.425h469.516l-67.25 88.582h-434.507z" fill="#ed461d"/><path d="m222.288 588.007h587.031l-104.467 88.582h-514.806z" fill="#d950e2"/><path d="m190.046 676.589h587.032l-89.201 88.582h-485.781c-24.461 0-37.074-19.83-28.171-44.291z" fill="#5dc9df"/><path d="m912.825 224.209c24.135 30.84 32.298 73.061 17.917 112.572-2.053 5.639-4.493 11.026-7.279 16.14-30.027 55.118-93.072 90.203-121.844 145.987-2.204 4.274.899 9.366 5.708 9.366l114.031.001-257.443 323.334 78.52-220.704c5.96-16.752-6.389-34.377-24.169-34.496l-46.969-.315 63.723-177.101c3.513-9.763.63-20.522-5.882-28.6-24.948-30.949-33.558-73.815-18.971-113.895 14.172-38.938 46.808-65.817 84.422-74.351l-21.434 58.887c-11.852 32.563 4.938 68.57 37.502 80.422 32.563 11.852 68.57-4.938 80.422-37.502z" fill="#f0eec2"/><path clip-rule="evenodd" d="m789.688 160.549c7.903-1.793 16.156.875 21.515 6.955 5.358 6.08 6.968 14.601 4.197 22.216l-21.434 58.887c-7.669 21.071 3.195 44.37 24.265 52.039 20.742 7.549 43.642-2.861 51.668-23.286l.371-.979 21.745-59.747c2.753-7.561 9.389-13.034 17.336-14.297 7.947-1.262 15.953 1.887 20.913 8.224 28.2 36.034 38.081 85.239 22.07 131.588l-.781 2.206c-15.456 42.465-49.397 72.841-89.35 85.401l-29.075 56.372 88.229.002c8.504 0 16.258 4.869 19.951 12.528 3.692 7.66 2.67 16.759-2.626 23.411l-257.442 323.335c-6.743 8.467-18.619 10.82-28.08 5.563-9.462-5.257-13.737-16.583-10.109-26.781l17.056-47.942h-458.012c-15.345 0-28.473-6.365-35.939-18.103-7.361-11.574-7.969-26.394-2.635-41.048l163.893-450.292c4.576-12.573 13.589-23.488 24.167-31.244 10.547-7.732 23.52-12.952 36.582-12.952h314.015c20.012-32.036 51.913-53.978 87.51-62.056zm4.901 21.598c-25.403 5.764-48.532 19.897-65.239 40.458-5.428 6.68-10.177 14.038-14.106 22.009-1.885 3.823-3.585 7.786-5.077 11.884l-.759 2.149c-5.973 17.439-7.595 35.353-5.433 52.54.825 6.562 2.199 13.019 4.096 19.302 5.271 17.451 14.562 33.566 27.199 46.915 1.337 1.412 2.711 2.795 4.122 4.145.856.819 1.163 2.063.762 3.178l-66.703 185.379c-1.052 2.924 1.102 6.01 4.209 6.031l69.172.463c3.81.026 6.456 3.803 5.179 7.392l-84.388 237.196c-.699 1.963 1.884 3.398 3.182 1.768l250.553-314.681-115.485-.002c-4.146 0-6.821-4.389-4.92-8.074l44.454-86.186c.992-1.924 2.782-3.302 4.875-3.854 35.352-9.322 65.791-34.97 79.785-71.571l.675-1.807c14.381-39.511 6.218-81.732-17.917-112.572l-21.746 59.745-.572 1.516c-12.404 31.565-47.796 47.652-79.85 35.986l-1.516-.573c-31.064-12.207-47.137-46.677-36.52-78.32l.534-1.529zm-576.115 505.515c-12.413 0-23.501 7.764-27.746 19.428l-6.397 17.576c-3.57 9.807-2.323 17.134.512 21.591 2.729 4.291 8.137 7.841 17.252 7.841h459.38c3.904 0 7.385-2.456 8.694-6.134l15.316-43.054c2.992-8.411-3.245-17.248-12.171-17.248zm32.242-88.583c-12.414 0-23.501 7.764-27.747 19.429l-9.898 27.195c-3.505 9.629 3.626 19.813 13.874 19.813h466.044c3.903 0 7.385-2.457 8.693-6.134l15.317-43.054c2.992-8.411-3.244-17.249-12.171-17.249zm32.241-88.582c-12.413 0-23.501 7.764-27.746 19.429l-9.898 27.195c-3.505 9.629 3.626 19.813 13.873 19.813h381.526c4.746 0 8.141-3.872 9.748-8.337l14.682-40.808c3.029-8.418-3.209-17.292-12.155-17.292zm32.242-88.582c-12.414 0-23.501 7.764-27.747 19.429l-9.898 27.195c-3.504 9.629 3.626 19.813 13.874 19.813h381.419c3.891 0 7.365-2.442 8.682-6.104l15.487-43.041c3.029-8.418-3.209-17.292-12.156-17.292zm32.24-88.582c-12.414 0-23.502 7.764-27.747 19.428l-9.898 27.195c-3.505 9.63 3.626 19.813 13.873 19.813h380.931c3.964 0 7.502-2.487 8.844-6.217 1.154-3.206.462-6.769-1.672-9.425-8.601-10.705-15.563-22.607-20.683-35.276-3.626-8.972-11.95-15.518-21.627-15.518zm40.724-88.582c-7.323 0-15.814 3.041-23.487 8.666-7.642 5.603-13.609 13.145-16.452 20.956l-6.188 17.001c-3.505 9.629 3.626 19.813 13.873 19.813h307.308c9.864 0 17.473-8.57 17.759-18.43.293-10.066 1.681-20.092 4.118-29.863 2.212-8.867-4.082-18.143-13.222-18.143z" fill="#000" fill-rule="evenodd"/></svg>