<svg width="63" height="32" viewBox="0 0 63 32" fill="none" xmlns="http://www.w3.org/2000/svg">
<path d="M37.8202 19.0386C38.4947 18.7305 39.1101 18.6487 39.6288 18.859C40.1536 19.0719 40.4699 19.5396 40.6444 20.0826C40.7247 20.3326 40.7778 20.6097 40.8094 20.9058C41.2318 20.6297 41.6772 20.3596 42.1454 20.0963C42.3416 19.986 42.5904 20.0555 42.701 20.2515C42.8115 20.4479 42.7421 20.6967 42.5457 20.8072C41.9355 21.1505 41.3671 21.5049 40.8397 21.8678C40.8381 21.9155 40.8372 21.964 40.8348 22.0123C40.764 23.4562 40.3389 25.2146 39.6991 26.8443C39.1007 28.3681 38.299 29.821 37.3846 30.8131L37.2 31.0054C36.7233 31.4822 36.2608 31.7961 35.827 31.9283C35.3771 32.0654 34.9378 32.0078 34.6024 31.7105C34.2885 31.432 34.1336 31.0014 34.0858 30.5347C34.0373 30.0603 34.0925 29.4959 34.2518 28.8785C34.7892 26.7967 36.5452 23.9411 40.0272 21.442C40.017 21.0049 39.9638 20.6298 39.868 20.3316C39.7357 19.9202 39.5419 19.7041 39.3221 19.6148C39.0958 19.5231 38.7306 19.5197 38.159 19.7808C37.5903 20.0407 36.8695 20.5401 35.9793 21.356C35.8133 21.5081 35.5554 21.4966 35.4032 21.3306C35.2513 21.1646 35.2619 20.9067 35.4276 20.7545C36.3487 19.9102 37.1423 19.3484 37.8202 19.0386ZM39.9784 22.4957C36.9797 24.7996 35.4977 27.3165 35.0418 29.0826C34.8995 29.6343 34.8612 30.0986 34.8973 30.4517C34.9343 30.8124 35.0436 31.0107 35.1444 31.1002C35.2241 31.1706 35.3513 31.2207 35.5897 31.148C35.8445 31.0703 36.1942 30.857 36.6229 30.4283L36.787 30.2564C37.6037 29.3692 38.3609 28.0212 38.9403 26.5455C39.4784 25.1748 39.8491 23.7283 39.9784 22.4957ZM18.8436 0.736892C23.1531 -0.368978 26.6735 -0.16084 29.2459 0.899978C31.9971 2.03465 33.6552 4.14552 33.9725 6.60213C34.5878 11.3678 30.1845 17.029 20.1102 19.2291L19.117 19.4312C18.7021 19.5096 18.2986 19.5749 17.9081 19.6353C18.0792 19.8729 18.2521 20.1188 18.4237 20.3746L18.745 20.8336C20.3415 23.0171 21.7948 23.5647 22.8075 23.6109C23.3589 23.636 23.812 23.5151 24.1258 23.3883C24.2824 23.3249 24.4037 23.2603 24.4832 23.2135C24.5228 23.1901 24.5522 23.1709 24.5702 23.1588C24.5791 23.1528 24.5855 23.1484 24.5887 23.1461L24.5897 23.1451L24.66 23.1031C24.8314 23.0214 25.0423 23.0686 25.161 23.2261C25.2962 23.4061 25.2606 23.6619 25.0809 23.7974L24.8348 23.4713C25.0558 23.7646 25.078 23.7944 25.0799 23.7974V23.7984L25.078 23.7994C25.077 23.8002 25.0754 23.8013 25.0741 23.8023C25.0712 23.8044 25.0676 23.8071 25.0633 23.8101C25.0543 23.8166 25.0415 23.8252 25.0262 23.8355C24.9955 23.8562 24.9521 23.8843 24.8973 23.9166C24.7878 23.9811 24.6303 24.0637 24.4315 24.1441C24.0336 24.3049 23.463 24.4579 22.7704 24.4263C21.4496 24.3661 19.7904 23.6452 18.0868 21.317L17.7459 20.8297C17.5089 20.4763 17.2704 20.1434 17.036 19.8277C14.4527 22.9949 11.9214 24.8596 9.61508 25.7027C7.68741 26.4072 5.91223 26.3987 4.41782 25.8277C2.92468 25.257 1.74401 24.137 0.983247 22.6793C-2.07308 16.8215 1.56864 5.74388 17.9706 0.975173L18.8436 0.736892ZM28.9344 1.65486C26.5672 0.678721 23.2351 0.452454 19.0477 1.52693L18.1981 1.75935C2.01695 6.46405 -0.995477 17.1237 1.70688 22.3023C2.38591 23.6034 3.42205 24.5742 4.70883 25.066C5.99435 25.5572 7.56487 25.583 9.33481 24.9361C11.3368 24.2043 13.5881 22.6114 15.9315 19.8785C12.8407 20.1499 10.6669 19.7979 9.24985 19.1383C8.31612 18.7034 7.68807 18.124 7.36899 17.482C7.04693 16.8335 7.05366 16.1451 7.35043 15.5582C7.94461 14.3834 9.56947 13.7855 11.5467 14.3609C13.1636 14.8317 15.0662 16.0852 17.0418 18.5035C18.5078 16.5859 20.001 14.2158 21.4813 11.3248L21.5262 11.2554C21.6448 11.1074 21.8547 11.0574 22.0301 11.147C22.2304 11.2499 22.3105 11.4964 22.2079 11.6969L21.8055 12.4693C20.4858 14.9613 19.1498 17.0659 17.8241 18.8228C18.1923 18.7654 18.5733 18.7036 18.9657 18.6295L19.9442 18.4303C29.8575 16.267 33.6948 10.8256 33.1629 6.70662C32.8879 4.57774 31.4519 2.69313 28.9344 1.65486ZM31.8153 18.2838C32.5673 18.0833 33.2829 18.0673 33.8055 18.2574C34.07 18.3537 34.3157 18.5148 34.4666 18.7642C34.6236 19.0238 34.6459 19.3253 34.5575 19.6246C34.4125 20.115 33.9657 20.6333 33.2391 21.1666L32.911 21.3961C31.5415 22.3091 30.2932 22.8188 29.2489 23.0074C28.2171 23.1936 27.3285 23.0734 26.743 22.6451C26.4444 22.4265 26.2314 22.1307 26.1356 21.7769C26.0407 21.4262 26.0679 21.0457 26.1981 20.6617C26.4556 19.9024 27.1287 19.0891 28.2206 18.3092C28.4039 18.1783 28.6589 18.2206 28.7899 18.4039C28.9207 18.5872 28.8783 18.8423 28.6952 18.9732C27.6741 19.7025 27.1513 20.3906 26.9706 20.9234C26.8817 21.1853 26.8789 21.3987 26.9237 21.564C26.9677 21.7263 27.0644 21.8697 27.2245 21.9869C27.5564 22.2297 28.1831 22.37 29.1043 22.2037C30.0135 22.0395 31.1583 21.5834 32.4588 20.7164L32.7674 20.5006C33.4311 20.0113 33.7045 19.6293 33.7743 19.3931C33.8084 19.2776 33.7883 19.22 33.7684 19.1871C33.7425 19.1443 33.6764 19.0787 33.5262 19.024C33.2187 18.9123 32.688 18.8961 32.0252 19.0728C31.3736 19.2466 30.632 19.5976 29.9207 20.1666C29.7449 20.3073 29.4883 20.2788 29.3475 20.1031C29.2067 19.9271 29.235 19.6706 29.411 19.5299C30.2089 18.8915 31.052 18.4873 31.8153 18.2838ZM43.9549 19.4937C45.0793 18.8513 45.9885 18.7376 46.784 18.9761C47.5485 19.2055 48.1427 19.7469 48.662 20.2291C49.2066 20.7348 49.6792 21.1848 50.2577 21.4244C50.803 21.6501 51.4805 21.7004 52.45 21.2847L52.8846 21.1041C53.8626 20.7132 54.5939 20.5273 55.2049 20.4898C55.9207 20.446 56.4412 20.6085 56.9549 20.8238C57.4693 21.0394 57.9358 21.2852 58.6493 21.4918C59.2638 21.6697 60.0588 21.8147 61.1717 21.8482L61.6678 21.856L61.7498 21.8638C61.9357 21.9017 62.0757 22.0663 62.076 22.2633C62.076 22.4606 61.936 22.6258 61.7498 22.6636L61.6678 22.6715L61.1454 22.6636C59.9725 22.6282 59.1097 22.4748 58.4227 22.276C57.6489 22.0519 57.0911 21.765 56.6395 21.5758C56.1876 21.3864 55.7982 21.271 55.2547 21.3043C54.7635 21.3344 54.1241 21.4879 53.1903 21.8609L52.7713 22.0347C51.628 22.5249 50.7205 22.4993 49.9452 22.1783C49.2031 21.8709 48.6181 21.3019 48.1063 20.8267C47.5691 20.3279 47.1057 19.9252 46.5497 19.7584C46.0246 19.6009 45.3477 19.6379 44.3592 20.2027C44.1637 20.3142 43.9144 20.2467 43.8026 20.0513C43.6911 19.8557 43.7594 19.6055 43.9549 19.4937ZM11.3182 15.1451C9.56236 14.6341 8.43161 15.2292 8.07895 15.9263C7.90251 16.2752 7.88841 16.693 8.10043 17.1197C8.3159 17.5528 8.77848 18.0194 9.5936 18.399C10.9152 19.0143 13.1043 19.3711 16.4051 19.0133C14.5047 16.6886 12.732 15.5567 11.3182 15.1451Z" fill="black"/>
</svg>
