<svg width="24" height="24" viewBox="0 0 24 24" fill="none" xmlns="http://www.w3.org/2000/svg">
<g clip-path="url(#clip0_2008_2976)">
<path d="M8 16C8 14.8954 8.89543 14 10 14H12V16C12 17.1046 11.1046 18 10 18C8.89543 18 8 17.1046 8 16Z" fill="#24CB71"/>
<path d="M12 6V10H14C15.1046 10 16 9.10457 16 8C16 6.89543 15.1046 6 14 6H12Z" fill="#FF7237"/>
<path d="M13.9834 14C15.088 14 15.9834 13.1046 15.9834 12C15.9834 10.8954 15.088 10 13.9834 10C12.8788 10 11.9834 10.8954 11.9834 12C11.9834 13.1046 12.8788 14 13.9834 14Z" fill="#00B6FF"/>
<path d="M8 8C8 9.10457 8.89543 10 10 10H12V6H10C8.89543 6 8 6.89543 8 8Z" fill="#FF3737"/>
<path d="M8 12C8 13.1046 8.89543 14 10 14H12V10H10C8.89543 10 8 10.8954 8 12Z" fill="#874FFF"/>
</g>
<defs>
<clipPath id="clip0_2008_2976">
<rect width="8" height="12" fill="white" transform="translate(8 6)"/>
</clipPath>
</defs>
</svg>
